<?xml version="1.0" standalone="no"?>
<!DOCTYPE svg PUBLIC "-//W3C//DTD SVG 20010904//EN"
 "http://www.w3.org/TR/2001/REC-SVG-20010904/DTD/svg10.dtd">
<svg version="1.0" xmlns="http://www.w3.org/2000/svg"
 width="2000.000000pt" height="2000.000000pt" viewBox="0 0 2000.000000 2000.000000"
 preserveAspectRatio="xMidYMid meet">

<g transform="translate(0.000000,2000.000000) scale(0.100000,-0.100000)"
fill="#000000" stroke="none">
<path d="M12090 17990 l0 -1500 30 0 30 0 0 1500 0 1500 -30 0 -30 0 0 -1500z"/>
<path d="M12673 19404 c-54 -20 -98 -70 -118 -136 -19 -66 -19 -101 1 -169 32
-106 92 -152 199 -153 81 0 138 31 174 96 28 51 28 53 -10 63 -22 5 -27 3 -33
-18 -3 -14 -22 -39 -41 -56 -30 -26 -44 -31 -88 -31 -106 0 -152 56 -152 187
0 67 4 86 21 109 68 92 191 98 241 14 13 -23 24 -30 42 -28 33 4 35 18 9 59
-47 70 -150 96 -245 63z"/>
<path d="M13030 19120 l0 -170 25 0 25 0 0 104 c0 147 23 196 83 180 19 -4 25
-1 30 17 12 47 -58 55 -98 12 l-25 -28 0 28 c0 20 -5 27 -20 27 -19 0 -20 -7
-20 -170z"/>
<path d="M13300 19272 c-99 -54 -99 -249 -1 -306 45 -26 117 -26 161 0 50 29
72 73 74 147 2 111 -55 177 -154 177 -25 0 -61 -8 -80 -18z m146 -56 c31 -31
34 -40 34 -91 0 -87 -35 -134 -98 -135 -69 0 -102 44 -102 136 0 50 3 59 34
90 25 25 43 34 66 34 23 0 42 -9 66 -34z"/>
<path d="M13607 19283 c-4 -3 -7 -109 -7 -235 l0 -228 30 0 30 0 0 79 0 78 39
-19 c33 -16 46 -18 78 -9 74 20 113 80 113 173 -1 68 -29 132 -69 152 -42 22
-103 20 -134 -4 -14 -11 -28 -20 -31 -20 -3 0 -6 9 -6 20 0 20 -28 28 -43 13z
m185 -44 c40 -21 61 -122 39 -182 -32 -84 -134 -91 -167 -12 -48 117 35 244
128 194z"/>
<path d="M12633 18621 c-46 -22 -73 -62 -73 -112 0 -46 52 -93 126 -114 113
-31 145 -46 155 -72 22 -58 -26 -103 -108 -103 -67 0 -109 23 -125 67 -10 27
-17 33 -40 33 -32 0 -34 -7 -14 -53 20 -48 68 -84 131 -97 140 -29 260 73 208
178 -22 45 -56 65 -158 92 -90 24 -115 41 -115 80 0 37 31 61 84 67 62 7 105
-12 122 -54 11 -25 20 -33 39 -33 19 0 25 5 25 20 0 67 -73 120 -165 120 -28
0 -69 -9 -92 -19z"/>
<path d="M4811 18605 c-195 -36 -343 -171 -407 -369 -35 -107 -44 -288 -20
-389 65 -277 274 -447 551 -447 214 0 399 111 488 291 48 98 67 187 67 320 0
194 -59 349 -176 458 -128 121 -316 171 -503 136z m282 -158 c164 -75 248
-250 234 -487 -7 -118 -26 -181 -77 -258 -44 -65 -116 -121 -190 -147 -70 -25
-202 -22 -275 6 -83 31 -183 130 -213 212 -56 149 -52 351 11 498 33 80 125
157 227 191 79 26 208 20 283 -15z"/>
<path d="M7430 18525 l0 -75 190 0 190 0 0 -515 0 -515 80 0 80 0 0 515 0 515
193 2 192 3 0 70 0 70 -462 3 -463 2 0 -75z"/>
<path d="M10960 18010 l0 -590 69 0 68 0 5 284 4 283 30 59 c25 51 37 63 83
87 106 53 223 28 262 -56 17 -38 19 -69 19 -349 l0 -308 75 0 75 0 0 318 c0
344 -4 377 -54 452 -17 25 -45 48 -83 67 -51 25 -69 28 -153 28 -107 0 -157
-17 -223 -74 l-37 -33 -2 209 -3 208 -67 3 -68 3 0 -591z"/>
<path d="M13033 18490 c-54 -32 -68 -75 -28 -82 14 -3 25 -1 25 4 0 5 11 20
25 33 18 19 35 25 65 25 30 0 47 -6 65 -25 47 -47 29 -68 -69 -80 -74 -9 -98
-18 -125 -46 -25 -27 -28 -85 -6 -116 33 -47 135 -50 201 -7 20 14 23 13 29
-5 4 -13 15 -21 28 -21 22 0 22 2 19 132 -4 142 -12 175 -52 195 -39 20 -139
16 -177 -7z m177 -170 c0 -35 -26 -84 -52 -98 -13 -7 -44 -12 -68 -10 -36 2
-47 8 -60 30 -14 26 -13 29 5 47 11 11 49 27 85 34 89 20 90 20 90 -3z"/>
<path d="M13325 18493 c4 -10 32 -87 63 -171 l55 -153 31 3 c30 3 32 6 88 163
31 88 57 164 57 168 1 5 -11 7 -26 5 -26 -3 -31 -12 -74 -138 -41 -119 -48
-132 -56 -110 -5 14 -27 76 -48 138 -38 108 -40 112 -68 112 -24 0 -28 -3 -22
-17z"/>
<path d="M13750 18503 c-53 -20 -93 -88 -94 -163 -1 -108 57 -172 157 -173 63
-1 111 22 132 63 19 37 19 37 -7 43 -17 5 -29 -2 -51 -28 -24 -29 -35 -35 -69
-35 -32 0 -47 7 -74 34 -21 21 -34 44 -34 60 l0 26 130 0 131 0 -7 38 c-16 93
-70 143 -154 141 -25 0 -52 -3 -60 -6z m131 -62 c16 -16 29 -39 29 -50 0 -20
-5 -21 -100 -21 -107 0 -112 3 -86 49 32 57 111 68 157 22z"/>
<path d="M5946 18266 c-33 -14 -76 -42 -98 -63 l-38 -37 0 52 0 52 -65 0 -65
0 0 -425 0 -425 70 0 70 0 0 223 c1 239 6 322 22 377 26 88 102 140 204 140
78 0 122 -23 152 -80 21 -43 22 -53 22 -352 l0 -308 75 0 75 0 0 325 c0 350
-4 383 -56 452 -64 84 -249 119 -368 69z"/>
<path d="M6827 18279 c-60 -14 -116 -47 -169 -100 -80 -80 -118 -190 -118
-342 0 -150 45 -265 135 -343 64 -56 139 -85 240 -91 184 -12 325 68 389 221
24 58 32 52 -91 71 -41 6 -41 6 -61 -37 -24 -56 -90 -114 -144 -128 -148 -41
-289 64 -313 233 l-7 47 322 0 322 0 -7 81 c-15 200 -111 337 -268 384 -55 16
-169 18 -230 4z m186 -120 c58 -16 122 -83 141 -148 9 -30 16 -61 16 -68 0
-10 -47 -13 -235 -13 l-235 0 0 23 c1 12 7 39 14 60 43 120 170 182 299 146z"/>
<path d="M8525 18270 c-107 -36 -187 -112 -228 -216 -35 -91 -42 -243 -16
-362 50 -230 305 -352 544 -261 82 32 173 121 206 204 21 54 23 76 24 210 0
134 -2 156 -23 208 -33 81 -114 166 -194 202 -85 39 -222 45 -313 15z m218
-116 c65 -22 131 -95 152 -169 24 -81 17 -252 -12 -316 -97 -215 -392 -186
-454 44 -14 51 -17 159 -7 225 27 172 169 268 321 216z"/>
<path d="M10365 18277 c-96 -32 -179 -98 -218 -173 -63 -121 -70 -335 -16
-479 25 -67 91 -142 156 -177 176 -94 407 -40 498 116 27 47 57 143 47 150 -4
2 -37 7 -73 11 l-67 7 -7 -33 c-33 -151 -176 -220 -313 -150 -44 23 -63 43
-90 96 -29 58 -35 98 -34 208 2 114 11 156 51 218 52 83 175 122 264 85 41
-17 91 -74 107 -121 l12 -37 52 7 c101 13 103 17 56 113 -35 69 -83 115 -149
145 -58 26 -215 34 -276 14z"/>
<path d="M9227 18263 c-12 -11 -8 -575 4 -638 28 -152 119 -221 289 -219 102
1 142 16 211 81 l49 46 0 -57 0 -56 70 0 70 0 0 425 0 425 -74 0 -74 0 -4
-288 c-3 -286 -3 -288 -29 -337 -69 -135 -273 -155 -343 -35 -20 33 -21 54
-24 348 l-4 312 -67 0 c-37 0 -71 -3 -74 -7z"/>
<path d="M12633 17841 c-46 -22 -73 -62 -73 -112 0 -46 52 -93 126 -114 113
-31 145 -46 155 -72 22 -58 -26 -103 -108 -103 -67 0 -109 23 -125 67 -10 27
-17 33 -40 33 -32 0 -34 -7 -14 -53 20 -48 68 -84 131 -97 140 -29 260 73 208
178 -22 45 -56 65 -158 92 -90 24 -115 41 -115 80 0 37 31 61 84 67 62 7 105
-12 122 -54 11 -25 20 -33 39 -33 19 0 25 5 25 20 0 67 -73 120 -165 120 -28
0 -69 -9 -92 -19z"/>
<path d="M12990 17620 l0 -230 24 0 c24 0 24 0 28 126 3 118 4 127 27 145 38
31 69 34 99 12 27 -20 27 -22 30 -152 l3 -131 30 0 31 0 -4 138 c-4 145 -12
171 -55 191 -37 17 -95 13 -130 -9 l-33 -20 0 80 c0 79 0 80 -25 80 l-25 0 0
-230z"/>
<path d="M13403 17710 c-54 -32 -68 -75 -28 -82 14 -3 25 -1 25 4 0 5 11 20
25 33 18 19 35 25 65 25 30 0 47 -6 65 -25 47 -47 29 -68 -69 -80 -74 -9 -98
-18 -125 -46 -25 -27 -28 -85 -6 -116 33 -47 135 -50 201 -7 20 14 23 13 29
-5 4 -13 15 -21 28 -21 22 0 22 2 19 132 -4 142 -12 175 -52 195 -39 20 -139
16 -177 -7z m177 -170 c0 -35 -26 -84 -52 -98 -13 -7 -44 -12 -68 -10 -36 2
-47 8 -60 30 -14 26 -13 29 5 47 11 11 49 27 85 34 89 20 90 20 90 -3z"/>
<path d="M13720 17560 l0 -170 25 0 25 0 0 104 c0 147 23 196 83 180 19 -4 25
-1 30 17 12 47 -58 55 -98 12 l-25 -28 0 28 c0 20 -5 27 -20 27 -19 0 -20 -7
-20 -170z"/>
<path d="M14000 17723 c-53 -20 -93 -88 -94 -163 -1 -108 57 -172 157 -173 63
-1 111 22 132 63 19 37 19 37 -7 43 -17 5 -29 -2 -51 -28 -24 -29 -35 -35 -69
-35 -32 0 -47 7 -74 34 -21 21 -34 44 -34 60 l0 26 130 0 131 0 -7 38 c-16 93
-70 143 -154 141 -25 0 -52 -3 -60 -6z m131 -62 c16 -16 29 -39 29 -50 0 -20
-5 -21 -100 -21 -107 0 -112 3 -86 49 32 57 111 68 157 22z"/>
<path d="M12680 17067 c-52 -17 -106 -77 -124 -138 -20 -66 -20 -102 -1 -167
44 -147 206 -203 338 -116 108 71 118 287 17 378 -59 53 -147 69 -230 43z
m168 -64 c53 -39 67 -69 70 -151 2 -61 -1 -84 -16 -112 -30 -56 -75 -80 -145
-80 -57 0 -62 2 -102 43 -34 34 -45 52 -50 90 -21 141 53 244 168 234 27 -2
60 -13 75 -24z"/>
<path d="M14370 17040 c0 -25 4 -30 25 -30 21 0 25 5 25 30 0 25 -4 30 -25 30
-21 0 -25 -5 -25 -30z"/>
<path d="M13070 16780 l0 -170 25 0 25 0 0 104 c0 147 23 196 83 180 19 -4 25
-1 30 17 12 47 -58 55 -98 12 l-25 -28 0 28 c0 20 -5 27 -20 27 -19 0 -20 -7
-20 -170z"/>
<path d="M13330 16937 c-105 -53 -102 -261 5 -311 43 -21 73 -20 118 3 l37 19
0 -40 c0 -54 -34 -88 -91 -88 -33 0 -47 6 -69 30 -15 17 -37 30 -49 30 -25 0
-24 2 -10 -39 14 -41 60 -65 124 -65 62 0 109 24 132 67 15 27 17 61 18 217 0
184 0 185 -22 188 -18 3 -23 -2 -23 -17 0 -26 -5 -26 -37 -1 -30 23 -94 27
-133 7z m131 -56 c26 -26 29 -36 29 -91 0 -90 -26 -129 -87 -130 -17 0 -39 3
-48 6 -27 11 -45 60 -45 124 0 55 3 65 29 91 20 20 39 29 61 29 22 0 41 -9 61
-29z"/>
<path d="M13683 16930 c-54 -32 -68 -75 -28 -82 14 -3 25 -1 25 4 0 5 11 20
25 33 18 19 35 25 65 25 30 0 47 -6 65 -25 47 -47 29 -68 -69 -80 -74 -9 -98
-18 -125 -46 -25 -27 -28 -85 -6 -116 33 -47 135 -50 201 -7 20 14 23 13 29
-5 4 -13 15 -21 28 -21 22 0 22 2 19 132 -4 142 -12 175 -52 195 -39 20 -139
16 -177 -7z m177 -170 c0 -35 -26 -84 -52 -98 -13 -7 -44 -12 -68 -10 -36 2
-47 8 -60 30 -14 26 -13 29 5 47 11 11 49 27 85 34 89 20 90 20 90 -3z"/>
<path d="M14010 16780 l0 -170 24 0 c24 0 24 0 28 125 3 109 6 127 23 145 32
31 75 35 108 10 27 -21 27 -22 27 -151 l0 -129 31 0 31 0 -4 138 c-4 145 -12
171 -55 191 -37 17 -95 13 -130 -8 -31 -19 -31 -19 -36 0 -3 11 -14 19 -26 19
-20 0 -21 -4 -21 -170z"/>
<path d="M14370 16780 l0 -170 25 0 25 0 0 170 0 170 -25 0 -25 0 0 -170z"/>
<path d="M14539 16936 c-49 -28 -61 -105 -22 -138 8 -7 52 -24 97 -38 72 -23
81 -29 84 -52 4 -37 -22 -58 -72 -58 -32 0 -48 6 -64 23 -12 13 -22 29 -22 35
0 14 -19 15 -39 3 -12 -8 -12 -14 -1 -41 40 -97 233 -82 255 21 13 56 -11 81
-110 114 -77 26 -90 34 -93 55 -10 66 118 66 140 0 5 -17 48 -3 48 15 0 8 -11
26 -24 41 -20 24 -32 28 -87 31 -43 2 -73 -1 -90 -11z"/>
<path d="M14910 16943 c-53 -20 -93 -88 -94 -163 -1 -108 57 -172 157 -173 63
-1 111 22 132 63 19 37 19 37 -7 43 -17 5 -29 -2 -51 -28 -24 -29 -35 -35 -69
-35 -32 0 -47 7 -74 34 -21 21 -34 44 -34 60 l0 26 130 0 131 0 -7 38 c-16 93
-70 143 -154 141 -25 0 -52 -3 -60 -6z m131 -62 c16 -16 29 -39 29 -50 0 -20
-5 -21 -100 -21 -107 0 -112 3 -86 49 32 57 111 68 157 22z"/>
<path d="M7637 15404 c-10 -10 -2058 -15 -3932 -11 -170 1 -228 -10 -324 -60
-35 -18 -68 -33 -73 -33 -23 0 -99 -43 -127 -71 -40 -39 -74 -108 -91 -178
-10 -44 -12 -255 -6 -1037 l6 -982 -25 -16 c-21 -14 -59 -16 -258 -16 -273 0
-292 -2 -306 -39 -16 -42 -29 -224 -28 -389 2 -142 3 -154 22 -165 36 -21 86
-26 328 -33 l238 -7 20 -25 c19 -25 19 -40 17 -493 -3 -535 3 -499 -97 -520
-129 -26 -271 -83 -271 -108 0 -7 -8 -21 -18 -30 -9 -9 -23 -26 -30 -39 -10
-18 -10 -22 2 -22 8 0 17 -6 20 -12 5 -10 7 -10 12 0 3 6 19 12 36 12 25 0 28
-3 24 -20 -3 -11 -9 -29 -12 -40 -3 -12 0 -27 6 -35 7 -8 9 -15 5 -15 -4 0 -3
-6 3 -13 23 -28 22 -125 -4 -220 -13 -51 -29 -110 -34 -133 -13 -58 -54 -131
-100 -178 -34 -34 -40 -46 -40 -81 0 -42 -10 -82 -35 -140 -7 -16 -16 -54 -19
-84 -9 -71 -37 -108 -102 -137 -28 -12 -54 -29 -57 -36 -2 -7 15 -33 39 -59
56 -57 61 -81 27 -146 -28 -56 -57 -73 -147 -88 -32 -5 -54 -21 -112 -79 -42
-42 -76 -85 -80 -102 -4 -16 -29 -53 -56 -82 -26 -30 -48 -58 -48 -63 0 -5 -7
-9 -16 -9 -8 0 -12 -5 -9 -10 6 -9 -10 -14 -42 -13 -7 1 -10 -4 -6 -10 4 -6
-2 -8 -18 -4 -13 4 -32 7 -41 7 -10 0 -18 7 -18 15 0 7 -6 18 -13 22 -18 11
-55 85 -50 100 2 6 -3 25 -11 42 -12 22 -13 31 -3 34 6 3 2 6 -10 6 -17 1 -21
5 -16 18 5 11 3 14 -6 8 -8 -4 -11 -21 -9 -40 2 -19 1 -32 -3 -29 -4 2 -7 -20
-8 -48 0 -55 -13 -144 -30 -213 -6 -22 -11 -59 -11 -82 0 -23 -7 -75 -16 -115
-8 -40 -19 -122 -24 -183 -18 -215 -30 -332 -45 -460 -8 -71 -20 -170 -26
-220 -11 -90 -55 -260 -111 -429 -33 -100 -159 -366 -241 -508 -29 -51 -65
-113 -79 -138 -64 -115 -143 -249 -169 -287 -16 -23 -29 -44 -29 -47 0 -7 -77
-115 -185 -261 -83 -111 -268 -369 -378 -525 -93 -133 -173 -241 -285 -387
l-102 -134 1 -472 c1 -260 5 -456 9 -437 4 19 15 49 24 65 9 17 16 39 16 49 0
11 17 42 39 70 21 28 42 62 46 76 4 14 16 35 27 46 10 12 27 43 37 70 14 38
27 54 57 70 29 15 43 31 54 62 19 52 27 59 65 64 46 5 65 30 65 86 0 46 23 98
39 88 4 -3 23 10 41 29 20 21 44 35 58 35 27 0 80 53 84 84 2 16 12 22 38 26
33 5 35 7 40 51 4 33 15 57 38 83 18 20 32 32 32 27 0 -17 72 -2 95 19 12 11
38 20 65 22 l45 3 3 60 c4 97 6 102 49 102 33 -1 38 2 37 21 0 12 5 22 12 22
8 0 11 6 8 15 -4 8 -2 15 4 15 10 0 3 44 -13 83 -6 14 -2 17 21 17 22 -1 35
-10 52 -36 25 -41 29 -74 7 -74 -8 0 -15 -4 -15 -10 0 -5 -11 -10 -24 -10 -22
0 -23 -3 -21 -47 2 -27 4 -48 5 -48 1 0 3 -12 4 -27 1 -25 29 -57 48 -58 19
-1 49 -78 49 -126 -1 -20 5 -22 80 -26 50 -2 83 -8 88 -16 10 -17 58 -25 67
-11 4 8 9 7 15 -2 7 -11 9 -10 9 4 0 9 8 18 18 18 9 1 28 3 42 5 14 3 37 5 53
6 33 2 34 12 5 98 -11 36 -23 71 -24 78 -2 6 -12 12 -22 12 -15 0 -21 9 -25
41 -3 22 -13 49 -22 59 -26 28 -9 86 30 108 17 9 31 20 33 24 7 16 81 88 90
88 10 0 27 37 38 83 4 16 14 31 23 34 27 10 71 44 71 54 0 6 -4 8 -10 4 -11
-7 -1 96 11 109 12 13 11 36 0 36 -5 0 -11 -6 -14 -12 -2 -7 -3 -6 -2 2 2 8 6
23 10 33 6 13 2 17 -15 17 -16 0 -20 -4 -13 -12 5 -7 6 -31 2 -53 -3 -22 -7
-30 -8 -19 -1 22 -43 42 -49 25 -4 -12 -59 4 -81 22 -20 17 -49 19 -78 5 -30
-15 -46 0 -63 54 -7 24 -18 52 -26 63 -16 22 -19 55 -5 55 6 0 8 12 7 28 -2
15 -4 33 -5 40 0 6 -8 12 -16 12 -9 0 -20 11 -24 24 -6 15 -20 25 -40 29 -18
4 -31 13 -31 22 0 8 -4 15 -10 15 -22 0 -8 32 20 48 30 16 31 19 28 78 -2 55
1 65 27 99 17 20 37 48 46 62 9 13 40 46 68 74 28 27 51 56 51 65 0 18 38 53
59 54 8 0 24 9 35 19 23 21 122 36 132 20 3 -5 10 -7 15 -3 5 3 6 10 3 16 -5
7 -1 9 9 5 14 -5 17 0 19 26 0 18 0 41 -1 53 -2 27 72 108 101 111 13 1 52 4
88 6 36 3 82 12 102 21 32 14 39 23 53 71 8 31 13 61 9 66 -4 6 -1 29 7 51 11
36 11 41 -4 50 -9 5 -17 18 -17 29 0 16 5 19 23 14 17 -5 19 -4 7 4 -8 6 -22
8 -32 5 -24 -7 -31 12 -16 44 8 15 11 40 8 57 -3 17 -2 53 2 80 7 48 5 98 -8
158 -3 16 -1 27 5 27 6 0 11 14 11 32 0 17 7 39 15 47 8 9 15 33 17 54 1 20 5
37 9 37 12 0 30 130 28 207 0 40 -1 85 -1 101 -1 57 21 225 31 235 5 5 7 17 3
26 -6 18 -51 80 -68 96 -35 31 -16 63 32 58 46 -5 59 14 59 83 l0 59 -50 10
c-44 10 -51 15 -60 43 -7 23 -15 32 -31 32 -27 0 -35 19 -40 95 -3 67 0 75 36
93 14 6 34 18 45 24 11 7 35 23 54 35 23 15 39 19 50 13 9 -4 21 -9 26 -10 23
-5 55 -20 55 -25 0 -4 -4 -4 -9 0 -5 3 -13 0 -17 -6 -5 -9 1 -10 22 -5 16 4
32 13 36 19 11 17 10 45 -2 52 -8 5 -8 11 0 20 12 14 9 103 -4 123 -4 7 -1 12
7 12 17 0 97 73 97 88 0 7 7 12 15 12 9 0 18 7 21 15 4 8 9 13 13 12 3 -2 16
7 28 20 12 13 19 23 16 23 -3 0 1 8 9 18 8 9 26 36 38 60 13 23 27 42 32 42 4
0 8 6 8 13 0 7 14 29 31 48 17 19 42 52 56 74 49 78 155 170 247 214 47 24 84
46 81 51 -3 5 7 17 22 27 15 9 30 19 33 20 2 2 4 23 5 46 0 39 -8 56 -42 92
-7 8 -13 20 -13 27 0 7 -7 22 -15 32 -8 11 -15 25 -15 30 0 6 5 4 10 -4 7 -11
10 -12 10 -2 0 8 23 37 51 64 l50 51 -24 21 c-35 29 -47 57 -51 118 -2 29 -7
62 -10 73 -6 18 -6 18 5 4 11 -15 14 -15 32 5 10 11 16 15 12 8 -12 -23 96 5
110 29 4 6 9 31 11 56 2 34 -3 53 -22 81 -29 42 -44 50 -96 51 -26 1 -38 -3
-38 -12 0 -8 -8 -21 -18 -30 -18 -16 -18 -15 -18 18 1 23 5 34 13 31 7 -3 10
1 6 11 -3 8 -1 18 5 22 6 3 12 20 15 36 6 46 43 59 167 59 99 1 109 -1 170
-31 36 -18 69 -28 73 -24 9 9 3 2562 -7 2750 -3 63 -10 117 -14 120 -16 11
-20 39 -9 51 8 9 8 11 1 7 -17 -10 -46 54 -32 71 9 10 6 14 -10 19 -18 4 -20
9 -11 24 6 13 6 25 -1 39 -6 10 -9 23 -8 27 3 16 -14 63 -24 63 -6 0 -8 -7 -4
-15 3 -8 1 -15 -4 -15 -6 0 -10 -14 -10 -31 0 -21 4 -28 13 -23 9 6 9 5 0 -7
-6 -8 -11 -36 -11 -64 -1 -27 -4 -66 -7 -85 -8 -44 -8 -46 -1 -205 7 -163 7
-196 -1 -209 -4 -6 -6 -29 -6 -51 l1 -40 -8 45 c-4 25 -11 311 -16 635 -12
776 -13 711 10 728 10 8 17 18 13 23 -3 5 5 21 16 35 20 24 32 27 112 34 94 8
134 9 200 7 22 -1 165 0 318 2 168 3 279 0 283 -5 3 -6 14 -7 24 -4 10 3 21 2
24 -3 3 -5 49 -8 103 -7 105 2 155 -14 168 -54 5 -16 24 -19 188 -24 100 -4
694 -7 1320 -7 985 0 1143 -2 1174 -15 19 -8 62 -42 95 -75 59 -60 59 -60 118
-60 57 0 60 1 61 25 2 28 3 33 13 57 7 17 28 18 262 15 202 -3 258 -7 271 -18
10 -8 30 -14 45 -13 15 0 25 -3 22 -7 -3 -5 0 -9 6 -9 6 0 15 -11 21 -24 8
-16 23 -26 46 -31 56 -10 103 12 169 80 51 54 67 64 106 70 24 4 246 5 492 3
l448 -3 25 -30 26 -29 -7 -1151 c-3 -632 -9 -1315 -12 -1516 -6 -354 -5 -366
13 -371 16 -4 431 -3 456 1 4 0 7 36 7 79 1 115 17 129 162 131 43 1 78 19 78
41 0 5 -7 16 -16 24 -17 18 -94 22 -94 5 0 -6 -9 -8 -22 -3 -13 4 -34 8 -48 8
-19 1 -29 10 -43 39 -15 32 -18 66 -18 219 0 227 1 229 112 240 99 10 132 24
123 52 -10 35 -19 38 -94 38 -57 0 -75 -4 -87 -19 -8 -10 -12 -13 -9 -6 4 6
-3 20 -14 31 -31 28 -41 156 -32 394 2 60 29 88 84 88 50 0 129 19 146 35 8 7
11 22 6 38 -5 22 -12 27 -38 28 -70 3 -108 -2 -123 -16 -19 -19 -24 -19 -16 2
4 10 2 14 -4 10 -32 -20 -63 82 -62 208 0 39 -2 90 -4 115 -4 44 13 124 31
142 10 10 25 13 112 23 93 11 109 18 103 50 -7 36 -36 48 -109 46 -123 -3
-133 17 -135 257 0 134 2 167 15 187 9 14 22 25 29 26 83 5 174 26 184 43 25
40 5 65 -59 73 -23 2 -44 6 -46 8 -2 2 -17 -1 -33 -5 -25 -7 -33 -4 -59 21
-33 34 -30 8 -34 301 -1 102 -6 161 -14 170 -6 8 -30 23 -52 34 -43 21 -62 57
-62 119 l0 33 -76 7 c-43 4 -95 10 -117 15 -40 8 -2060 32 -2068 24z m-2829
-159 c8 -7 -12 -34 -28 -38 -27 -7 -39 5 -29 31 7 19 14 22 31 16 13 -3 24 -8
26 -9z m-128 -25 c0 -5 -4 -10 -10 -10 -5 0 -10 5 -10 10 0 6 5 10 10 10 6 0
10 -4 10 -10z m30 -40 c0 -5 -5 -10 -11 -10 -5 0 -7 5 -4 10 3 6 8 10 11 10 2
0 4 -4 4 -10z m5028 -2421 c2 -12 -4 -16 -25 -15 -17 1 -29 7 -31 17 -2 12 4
16 25 15 17 -1 29 -7 31 -17z m69 5 c-3 -3 -12 -4 -19 -1 -8 3 -5 6 6 6 11 1
17 -2 13 -5z m308 -444 c-3 -5 -11 -10 -16 -10 -6 0 -7 5 -4 10 3 6 11 10 16
10 6 0 7 -4 4 -10z m-371 -111 c-3 -5 0 -9 6 -9 7 0 9 -8 4 -22 -9 -31 -9 -31
-42 -23 -36 8 -51 35 -23 42 11 3 22 14 25 26 4 17 7 18 20 8 9 -8 13 -17 10
-22z m96 -23 c0 -3 -4 -8 -10 -11 -5 -3 -10 -1 -10 4 0 6 5 11 10 11 6 0 10
-2 10 -4z m-8400 -5749 c0 -7 -5 -18 -12 -25 -9 -9 -14 -7 -24 6 -19 25 -17
32 11 32 14 0 25 -6 25 -13z m-287 -382 c1 -5 -6 -11 -15 -13 -11 -2 -18 3
-18 13 0 17 30 18 33 0z"/>
<path d="M4655 15170 c-3 -5 -1 -10 4 -10 6 0 11 5 11 10 0 6 -2 10 -4 10 -3
0 -8 -4 -11 -10z"/>
<path d="M4624 14696 c-16 -27 -48 -75 -71 -107 -46 -63 -107 -178 -99 -186 2
-3 21 18 41 46 36 50 57 62 71 40 13 -22 43 53 37 92 -4 28 1 46 27 87 17 29
30 58 27 64 -2 7 -17 -9 -33 -36z"/>
<path d="M4446 14638 c-57 -78 -88 -141 -80 -162 9 -24 27 -14 28 16 1 14 26
64 55 112 29 48 51 89 48 92 -3 3 -25 -23 -51 -58z"/>
<path d="M5652 14667 c-23 -24 -28 -37 -14 -37 4 0 16 14 25 30 22 36 18 38
-11 7z"/>
<path d="M6899 14648 c-40 -56 -61 -97 -56 -111 4 -13 62 69 83 118 19 47 11
44 -27 -7z"/>
<path d="M8378 14673 c-23 -28 -30 -43 -19 -43 12 0 46 48 39 55 -3 3 -12 -3
-20 -12z"/>
<path d="M6772 14640 c0 -14 2 -19 5 -12 2 6 2 18 0 25 -3 6 -5 1 -5 -13z"/>
<path d="M7097 14583 c-10 -18 -13 -33 -8 -33 15 0 33 28 29 47 -3 14 -8 11
-21 -14z"/>
<path d="M6246 14574 c-5 -14 -4 -15 9 -4 17 14 19 20 6 20 -5 0 -12 -7 -15
-16z"/>
<path d="M7256 14574 c-5 -14 -4 -15 9 -4 17 14 19 20 6 20 -5 0 -12 -7 -15
-16z"/>
<path d="M7341 14567 c-14 -37 -14 -40 4 -33 11 4 15 -1 15 -19 0 -35 16 -31
29 6 14 40 14 42 -1 36 -7 -2 -18 5 -25 17 -11 21 -12 20 -22 -7z"/>
<path d="M8017 14583 c-4 -3 -7 -11 -7 -17 0 -6 5 -5 12 2 6 6 9 14 7 17 -3 3
-9 2 -12 -2z"/>
<path d="M6207 14525 c-10 -7 -17 -21 -15 -30 2 -12 8 -8 21 14 20 35 20 36
-6 16z"/>
<path d="M7536 14518 c-17 -24 -21 -48 -8 -48 5 0 13 16 19 35 13 41 10 44
-11 13z"/>
<path d="M6046 14515 c-9 -26 -7 -32 5 -12 6 10 9 21 6 23 -2 3 -7 -2 -11 -11z"/>
<path d="M5331 14484 c0 -11 3 -14 6 -6 3 7 2 16 -1 19 -3 4 -6 -2 -5 -13z"/>
<path d="M5557 14493 c-4 -3 -7 -11 -7 -17 0 -6 5 -5 12 2 6 6 9 14 7 17 -3 3
-9 2 -12 -2z"/>
<path d="M7610 14484 c0 -8 5 -12 10 -9 6 3 10 10 10 16 0 5 -4 9 -10 9 -5 0
-10 -7 -10 -16z"/>
<path d="M8276 14485 c-3 -8 -1 -15 4 -15 6 0 10 7 10 15 0 8 -2 15 -4 15 -2
0 -6 -7 -10 -15z"/>
<path d="M6285 14480 c-3 -5 -1 -10 4 -10 6 0 11 5 11 10 0 6 -2 10 -4 10 -3
0 -8 -4 -11 -10z"/>
<path d="M7130 14480 c0 -5 5 -10 11 -10 5 0 7 5 4 10 -3 6 -8 10 -11 10 -2 0
-4 -4 -4 -10z"/>
<path d="M8545 14481 c-3 -5 -1 -12 5 -16 5 -3 10 1 10 9 0 18 -6 21 -15 7z"/>
<path d="M3515 14300 c3 -5 8 -10 11 -10 2 0 4 5 4 10 0 6 -5 10 -11 10 -5 0
-7 -4 -4 -10z"/>
<path d="M8482 13937 c-25 -27 -30 -46 -6 -27 15 13 38 50 31 50 -2 0 -13 -10
-25 -23z"/>
<path d="M5991 13854 c0 -11 3 -14 6 -6 3 7 2 16 -1 19 -3 4 -6 -2 -5 -13z"/>
<path d="M5815 13849 c-11 -17 1 -21 15 -4 8 9 8 15 2 15 -6 0 -14 -5 -17 -11z"/>
<path d="M5900 13844 c0 -8 5 -12 10 -9 6 3 10 10 10 16 0 5 -4 9 -10 9 -5 0
-10 -7 -10 -16z"/>
<path d="M6160 13849 c0 -5 5 -7 10 -4 6 3 10 8 10 11 0 2 -4 4 -10 4 -5 0
-10 -5 -10 -11z"/>
<path d="M4706 13818 c-18 -26 -20 -44 -6 -53 9 -6 40 44 40 65 0 17 -18 11
-34 -12z"/>
<path d="M8181 13814 c-12 -27 -11 -28 4 -12 10 9 16 21 13 28 -2 7 -10 -1
-17 -16z"/>
<path d="M5512 13808 c-13 -13 -17 -68 -4 -68 5 0 18 18 31 40 21 38 21 40 4
40 -11 0 -24 -5 -31 -12z"/>
<path d="M8232 13808 c-7 -7 -12 -23 -12 -37 1 -24 2 -24 16 8 16 37 14 47 -4
29z"/>
<path d="M4996 13785 c-17 -26 -21 -45 -8 -45 4 0 12 16 18 35 13 42 12 43
-10 10z"/>
<path d="M8380 13795 c-6 -8 -9 -23 -5 -36 8 -25 20 -15 29 24 7 29 -4 36 -24
12z"/>
<path d="M17258 13802 l-358 -2 -13 -23 c-8 -12 -51 -87 -97 -167 -45 -80 -93
-161 -105 -180 -12 -19 -39 -65 -59 -103 l-37 -67 678 2 678 3 25 47 c14 25
53 94 88 153 35 58 72 123 84 143 11 20 24 42 28 47 4 6 26 43 49 84 l41 73
-322 -3 c-178 -2 -484 -5 -680 -7z"/>
<path d="M5375 13789 c-4 -6 -5 -12 -2 -15 2 -3 7 2 10 11 7 17 1 20 -8 4z"/>
<path d="M6885 13780 c-4 -12 -5 -24 -2 -27 3 -2 8 5 12 17 4 12 5 24 2 27 -3
2 -8 -5 -12 -17z"/>
<path d="M8153 13765 c-3 -9 -3 -18 -1 -21 3 -3 8 4 11 16 6 23 -1 27 -10 5z"/>
<path d="M4571 13754 c0 -11 3 -14 6 -6 3 7 2 16 -1 19 -3 4 -6 -2 -5 -13z"/>
<path d="M6581 13754 c0 -11 3 -14 6 -6 3 7 2 16 -1 19 -3 4 -6 -2 -5 -13z"/>
<path d="M7510 13750 c0 -5 5 -10 11 -10 5 0 7 5 4 10 -3 6 -8 10 -11 10 -2 0
-4 -4 -4 -10z"/>
<path d="M6267 13212 c-26 -28 -22 -52 4 -25 12 11 20 26 17 33 -2 7 -9 5 -21
-8z"/>
<path d="M8256 13205 c-9 -13 -16 -27 -16 -31 0 -10 30 17 41 38 15 27 -6 22
-25 -7z"/>
<path d="M7836 13131 c-4 -7 -5 -15 -2 -18 9 -9 19 4 14 18 -4 11 -6 11 -12 0z"/>
<path d="M5125 13094 c-8 -20 -28 -52 -45 -70 -16 -19 -30 -40 -29 -47 0 -7 8
-1 17 13 9 14 31 41 48 60 34 38 52 80 35 80 -6 0 -18 -16 -26 -36z"/>
<path d="M5760 13119 c0 -5 5 -7 10 -4 6 3 10 8 10 11 0 2 -4 4 -10 4 -5 0
-10 -5 -10 -11z"/>
<path d="M5846 13113 c-6 -14 -5 -15 5 -6 7 7 10 15 7 18 -3 3 -9 -2 -12 -12z"/>
<path d="M6826 13114 c-9 -24 -7 -28 9 -14 17 14 20 30 6 30 -5 0 -12 -7 -15
-16z"/>
<path d="M7496 13114 c-5 -14 -4 -15 9 -4 17 14 19 20 6 20 -5 0 -12 -7 -15
-16z"/>
<path d="M7656 13114 c-9 -24 -7 -28 9 -14 17 14 20 30 6 30 -5 0 -12 -7 -15
-16z"/>
<path d="M8047 13123 c-4 -3 -7 -11 -7 -17 0 -6 5 -5 12 2 6 6 9 14 7 17 -3 3
-9 2 -12 -2z"/>
<path d="M7294 13064 c-4 -10 -9 -22 -11 -26 -2 -5 0 -8 5 -8 10 0 24 41 17
48 -3 3 -8 -4 -11 -14z"/>
<path d="M7442 13058 c-14 -14 -16 -42 -2 -33 14 9 32 45 22 45 -4 0 -13 -5
-20 -12z"/>
<path d="M8001 13052 c-17 -31 -13 -40 5 -14 9 13 14 26 11 29 -3 2 -10 -4
-16 -15z"/>
<path d="M8160 13031 c-6 -12 -7 -21 -1 -21 10 0 24 30 17 37 -2 3 -9 -5 -16
-16z"/>
<path d="M6171 13024 c0 -11 3 -14 6 -6 3 7 2 16 -1 19 -3 4 -6 -2 -5 -13z"/>
<path d="M6441 13024 c0 -11 3 -14 6 -6 3 7 2 16 -1 19 -3 4 -6 -2 -5 -13z"/>
<path d="M5365 13020 c-3 -5 -1 -10 4 -10 6 0 11 5 11 10 0 6 -2 10 -4 10 -3
0 -8 -4 -11 -10z"/>
<path d="M5947 13012 c-19 -20 -23 -37 -7 -27 10 6 33 45 27 45 -2 0 -11 -8
-20 -18z"/>
<path d="M5238 12493 c-23 -28 -30 -43 -19 -43 12 0 46 48 39 55 -3 3 -12 -3
-20 -12z"/>
<path d="M6075 12480 c-10 -11 -16 -22 -13 -25 3 -3 13 4 23 15 10 11 16 22
13 25 -3 3 -13 -4 -23 -15z"/>
<path d="M4828 12453 c-14 -15 -38 -53 -52 -83 l-27 -55 42 45 c44 48 72 95
67 111 -2 6 -15 -3 -30 -18z"/>
<path d="M4939 12424 c-7 -9 -19 -33 -26 -53 l-12 -36 20 25 c29 36 51 80 40
80 -4 0 -15 -7 -22 -16z"/>
<path d="M7197 12413 c-4 -3 -7 -11 -7 -17 0 -6 5 -5 12 2 6 6 9 14 7 17 -3 3
-9 2 -12 -2z"/>
<path d="M7020 12388 c-12 -22 -12 -22 6 -6 10 10 15 20 12 24 -4 3 -12 -5
-18 -18z"/>
<path d="M7111 12394 c0 -11 3 -14 6 -6 3 7 2 16 -1 19 -3 4 -6 -2 -5 -13z"/>
<path d="M8036 12394 c-5 -14 -4 -15 9 -4 17 14 19 20 6 20 -5 0 -12 -7 -15
-16z"/>
<path d="M6522 12358 c-14 -14 -16 -48 -3 -48 9 0 25 49 18 56 -2 2 -9 -2 -15
-8z"/>
<path d="M6066 12323 c-6 -14 -5 -15 5 -6 7 7 10 15 7 18 -3 3 -9 -2 -12 -12z"/>
<path d="M7990 12325 c-7 -9 -10 -18 -7 -21 3 -3 10 4 17 15 13 25 8 27 -10 6z"/>
<path d="M5137 12317 c-11 -29 -9 -43 4 -30 6 6 9 19 7 29 -3 18 -4 18 -11 1z"/>
<path d="M7236 12313 c-4 -9 -2 -21 4 -27 7 -7 10 -7 10 1 0 6 3 18 6 27 3 9
2 16 -4 16 -5 0 -13 -8 -16 -17z"/>
<path d="M5981 12304 c0 -11 3 -14 6 -6 3 7 2 16 -1 19 -3 4 -6 -2 -5 -13z"/>
<path d="M6416 12274 c-5 -14 -4 -15 9 -4 17 14 19 20 6 20 -5 0 -12 -7 -15
-16z"/>
<path d="M7307 12283 c-4 -3 -7 -11 -7 -17 0 -6 5 -5 12 2 6 6 9 14 7 17 -3 3
-9 2 -12 -2z"/>
<path d="M7200 11956 c-95 -17 -255 -79 -245 -96 3 -5 -15 -23 -40 -40 -26
-18 -50 -41 -56 -53 -10 -25 -30 -56 -44 -73 -6 -6 -17 -31 -24 -55 -7 -24
-17 -53 -21 -64 -22 -53 -29 -209 -30 -655 -1 -267 -3 -559 -5 -650 -4 -164
-4 -230 -5 -885 0 -187 -2 -515 -4 -730 -7 -661 -18 -1997 -16 -2055 1 -30 -2
-51 -7 -46 -4 4 -8 22 -9 39 -1 42 -13 127 -20 149 -7 24 -24 23 -24 -1 0 -10
-7 -25 -16 -32 -18 -15 -17 -34 15 -203 28 -146 28 -309 1 -416 -27 -106 -74
-195 -113 -215 -35 -18 -57 -19 -57 -4 0 6 -8 8 -19 4 -21 -6 -51 7 -90 43
-14 12 -29 22 -34 22 -4 0 -16 8 -27 18 -19 17 -68 44 -142 77 -21 10 -35 21
-32 26 3 5 -4 9 -15 9 -12 0 -21 6 -21 14 0 8 -5 18 -12 22 -7 4 -8 3 -4 -4
12 -20 -10 -13 -36 11 -28 24 -48 32 -48 18 0 -18 103 -122 146 -147 42 -25
63 -45 27 -25 -28 14 -282 20 -1063 26 -1108 8 -1501 15 -1522 28 -10 7 -20
18 -23 26 -7 19 -7 644 1 1491 5 577 4 662 -8 645 -21 -29 -34 -68 -62 -180
-13 -55 -37 -152 -53 -215 -77 -297 -81 -405 -27 -722 25 -147 18 -269 -27
-447 -60 -235 -100 -328 -226 -510 -48 -71 -49 -93 -5 -196 61 -145 192 -218
410 -229 98 -6 2065 -20 2460 -18 l213 1 56 32 c45 26 69 33 127 35 68 4 69 3
37 -9 -35 -14 -54 -37 -29 -37 14 0 -34 -29 -98 -60 -65 -31 -134 -108 -184
-203 -9 -18 -20 -27 -30 -24 -37 10 -52 -150 -22 -234 23 -65 98 -176 167
-245 37 -37 62 -53 98 -62 26 -7 45 -16 43 -21 -5 -8 185 -144 219 -158 10 -3
15 1 15 13 0 9 3 14 7 10 4 -4 7 -23 6 -44 -1 -20 1 -28 4 -17 3 11 9 25 13
30 4 6 6 18 4 29 -2 12 1 15 7 9 9 -9 11 -120 6 -374 -2 -72 -5 -86 -17 -81
-12 4 -13 2 -2 -9 6 -7 12 -31 12 -52 0 -35 -2 -39 -20 -34 -19 5 -21 2 -18
-46 3 -48 5 -51 35 -59 25 -6 31 -12 26 -26 -5 -13 -3 -14 7 -5 15 14 34 8 80
-26 86 -64 133 -149 138 -254 8 -141 -34 -253 -137 -368 -89 -98 -155 -139
-243 -151 -111 -15 -158 -16 -165 -4 -3 6 -3 8 2 4 4 -4 14 -3 21 2 6 6 16 10
20 9 31 -5 42 2 36 24 -3 12 -13 28 -21 34 -14 11 -13 13 7 19 14 4 21 12 18
21 -3 7 3 21 14 30 11 10 20 21 20 26 0 5 -7 4 -15 -3 -12 -10 -13 -7 -5 19 5
17 5 31 1 31 -13 0 -34 53 -32 78 2 13 -3 22 -12 22 -7 0 -14 6 -14 14 0 8 6
12 15 8 11 -4 13 -1 7 8 -5 8 -3 11 6 8 8 -3 20 1 27 9 8 7 18 11 23 8 5 -4 9
3 9 14 0 11 -9 25 -20 31 -11 6 -20 17 -20 25 0 9 -4 23 -9 33 -5 9 -13 28
-19 42 -33 83 -31 81 -57 74 -22 -5 -25 -3 -25 21 0 24 1 25 16 10 12 -12 19
-13 30 -4 16 13 19 39 5 39 -6 0 -13 -5 -16 -10 -4 -6 -11 -8 -16 -4 -6 3 1
17 16 31 14 14 25 29 25 33 0 4 18 12 40 19 22 6 40 14 40 18 0 3 -11 16 -26
29 -24 23 -71 34 -59 14 3 -5 1 -10 -4 -10 -6 0 -11 6 -11 13 0 6 -6 1 -13
-13 -7 -14 -18 -26 -25 -26 -7 -1 -16 -2 -22 -3 -5 0 -16 -16 -23 -34 -19 -43
-102 -133 -111 -118 -4 6 -12 9 -17 6 -5 -3 -6 0 -3 8 3 10 -3 16 -20 19 -15
3 -27 0 -30 -8 -3 -8 -1 -14 4 -14 6 0 1 -9 -10 -20 -12 -12 -18 -25 -15 -30
3 -5 -3 -11 -14 -15 -24 -7 -30 -23 -38 -96 -4 -41 -1 -73 11 -111 15 -47 70
-141 103 -176 7 -7 18 -21 25 -30 38 -50 219 -182 255 -186 15 -2 29 -8 31
-15 2 -6 11 -11 20 -10 11 0 12 2 5 6 -15 6 -17 33 -3 33 6 0 10 -5 10 -11 0
-8 4 -8 14 0 11 9 15 9 19 -1 3 -10 8 -9 23 3 21 18 41 25 94 33 29 4 38 0 53
-20 15 -21 16 -24 2 -24 -8 0 -15 6 -15 13 0 9 -2 9 -9 -1 -12 -19 -59 -42
-74 -36 -24 9 -16 -33 9 -45 19 -9 24 -8 24 4 0 8 6 15 14 15 7 0 27 7 42 15
27 14 30 14 47 -7 48 -59 130 -138 142 -138 4 0 30 -11 60 -25 64 -29 149 -52
228 -61 48 -6 54 -9 41 -19 -14 -10 -15 -17 -6 -43 25 -72 104 -160 157 -176
15 -4 21 -16 23 -38 3 -42 46 -130 77 -160 14 -13 25 -29 25 -36 0 -7 11 -38
25 -68 14 -30 25 -57 25 -59 0 -3 20 -47 44 -98 30 -61 60 -107 90 -137 25
-24 46 -49 46 -55 0 -5 15 -26 33 -45 18 -19 51 -60 74 -90 38 -51 103 -119
103 -109 1 2 8 40 17 84 27 138 28 172 5 184 -11 6 -28 8 -36 5 -9 -3 -24 -3
-33 0 -15 6 -15 8 -3 16 12 8 12 10 -4 10 -13 0 -17 5 -13 20 3 13 1 18 -6 13
-6 -4 -8 0 -4 11 5 12 2 16 -11 14 -12 -2 -16 3 -15 17 5 48 6 91 2 104 -2 8
5 19 16 25 11 6 22 22 23 36 5 33 39 88 63 100 10 6 19 15 19 20 0 10 95 113
235 254 45 45 98 105 119 134 l39 54 281 -7 c262 -6 323 -6 401 -3 17 1 47 1
68 0 35 -2 37 -4 37 -37 0 -19 -4 -35 -9 -35 -4 0 -6 -11 -3 -25 3 -19 0 -25
-13 -25 -21 0 -17 -45 5 -45 25 -1 60 26 60 46 0 11 5 19 10 19 6 0 15 11 21
24 13 27 59 42 59 20 0 -8 6 -14 14 -14 8 0 16 -7 20 -15 3 -9 19 -15 41 -15
34 0 47 13 23 23 -7 3 -3 6 10 6 12 1 22 -3 22 -8 0 -5 10 -7 23 -4 16 3 18 2
9 -5 -11 -7 -9 -10 7 -15 12 -3 21 -13 21 -24 0 -11 6 -28 14 -38 10 -14 11
-25 4 -39 -7 -13 -7 -16 1 -12 13 8 4 -93 -10 -110 -15 -19 -24 -114 -10 -114
6 0 11 -4 11 -10 0 -5 9 -19 20 -30 11 -11 20 -31 20 -45 0 -14 6 -25 13 -25
7 0 8 -3 2 -8 -15 -11 -13 -76 3 -86 10 -6 12 -21 8 -60 -4 -35 -3 -46 4 -36
6 10 10 11 10 3 0 -7 10 -13 23 -13 12 0 31 -7 41 -15 15 -12 22 -12 27 -3 6
10 16 10 43 0 40 -15 56 -10 56 17 0 20 47 47 100 58 17 3 34 12 37 19 3 8 9
14 15 14 21 0 39 30 32 52 -14 42 -11 55 9 54 11 -1 22 6 24 14 4 13 3 13 -7
0 -10 -13 -11 -13 -7 0 2 8 15 17 29 20 17 3 24 11 22 23 -1 11 0 16 4 13 8
-8 52 34 52 50 0 8 14 21 32 30 43 22 58 39 58 63 0 12 5 21 10 21 6 0 10 7
10 15 0 8 9 20 20 27 11 7 20 18 20 25 0 7 7 13 15 13 16 0 20 16 6 24 -11 7
-1 56 12 56 6 0 19 8 30 17 18 17 20 17 42 -10 29 -32 44 -34 78 -7 14 11 30
20 36 20 6 0 11 7 11 15 0 8 6 15 14 15 7 0 24 8 37 19 13 10 45 21 72 25 26
4 45 11 42 16 -3 5 6 7 20 4 15 -2 25 0 25 7 0 6 7 8 16 5 8 -3 13 -2 10 3 -6
10 26 21 62 21 13 0 21 4 17 10 -3 5 -11 7 -18 5 -31 -10 -248 -14 -242 -5 3
5 1 10 -4 10 -6 0 -11 -4 -11 -10 0 -12 -35 -13 -58 -1 -16 8 -238 15 -897 26
-159 3 -400 7 -535 10 -135 3 -432 8 -660 11 -228 3 -431 10 -450 15 -22 5 26
6 125 4 88 -3 405 -7 705 -10 300 -3 655 -7 790 -10 135 -3 432 -8 660 -10
464 -5 494 -3 625 61 92 44 153 98 203 181 45 75 67 146 82 267 8 69 17 782
21 1642 1 226 6 271 29 248 17 -17 38 -267 40 -472 2 -333 5 -397 15 -404 20
-15 23 -7 13 29 -7 26 -6 43 2 62 7 14 14 75 16 135 2 60 8 114 13 119 6 6 6
19 1 33 -5 13 -6 34 -1 46 5 13 3 31 -5 46 -13 26 -14 23 6 109 16 69 35 83
94 64 31 -10 98 -16 146 -13 42 3 8 22 -51 28 -78 7 -77 6 -73 66 3 29 1 46
-3 37 -10 -20 -40 -16 -59 8 -15 20 -35 81 -40 128 -6 47 -14 64 -27 59 -7 -2
-13 6 -13 21 -1 15 -9 34 -18 44 -9 10 -16 25 -16 34 0 8 -7 22 -15 30 -13 13
-20 35 -42 125 -3 12 -9 22 -14 22 -5 0 -6 7 -2 16 3 9 2 19 -4 23 -13 9 -30
123 -22 152 3 13 1 30 -5 38 -8 11 -8 15 2 18 6 3 9 10 5 16 -11 17 -11 57 0
57 4 0 6 9 2 19 -3 11 -2 22 4 25 5 3 8 17 7 31 -2 13 1 22 5 19 5 -3 6 9 3
26 -4 20 -3 30 5 30 7 0 9 5 6 10 -3 6 1 10 10 10 9 0 14 4 10 9 -3 5 -1 12 5
16 15 9 12 25 -6 25 -8 0 -12 5 -9 10 4 6 1 18 -7 27 -11 14 -10 15 12 9 24
-7 24 -7 5 9 -17 14 -18 17 -5 25 13 8 12 10 -2 10 -10 0 -18 5 -18 11 0 6 8
8 18 5 16 -6 16 -5 -1 8 -15 11 -15 15 -3 19 8 3 16 1 18 -5 3 -8 10 -8 24 1
14 9 14 11 2 7 -25 -7 -35 47 -14 79 9 14 12 25 7 25 -13 0 -20 63 -9 77 6 7
14 11 18 8 10 -6 7 21 -3 31 -10 11 -9 54 2 54 5 0 12 7 15 16 7 18 -11 47
-25 39 -4 -3 -12 11 -16 32 -7 32 -9 721 -5 1888 1 149 1 277 1 285 0 8 2 119
5 245 12 499 16 2104 6 2110 -7 4 -7 12 0 25 15 27 12 162 -5 260 -8 47 -16
96 -18 110 -7 45 -20 68 -125 213 -29 40 -140 108 -212 130 -30 9 -91 20 -135
25 -45 6 -795 10 -1720 10 -1298 0 -1656 -2 -1715 -12z m-236 -165 c8 -12 -60
-85 -73 -77 -17 11 -14 19 20 54 32 33 44 38 53 23z m4133 -328 c-3 -10 -5 -2
-5 17 0 19 2 27 5 18 2 -10 2 -26 0 -35z m12 -80 l-2 -58 -7 50 c-7 47 -5 65
6 65 2 0 3 -26 3 -57z m-139 -733 l0 -330 -2025 0 -2025 0 0 330 0 330 2025 0
2025 0 0 -330z m-1736 -875 c929 -3 1693 -8 1699 -12 7 -4 8 -277 4 -837 -4
-457 -9 -1369 -13 -2026 -3 -657 -6 -1256 -8 -1330 l-2 -134 -89 2 c-194 5
-1072 22 -1475 28 -385 6 -423 5 -405 -9 16 -13 18 -19 9 -34 -14 -23 -44 -23
-58 0 -9 14 -7 21 6 31 24 18 -211 24 -1201 33 l-803 6 6 901 c3 496 9 1459
12 2141 3 682 8 1244 11 1248 2 4 143 5 311 2 169 -3 1067 -7 1996 -10z m1846
-2755 c0 -5 -2 -10 -4 -10 -3 0 -8 5 -11 10 -3 6 -1 10 4 10 6 0 11 -4 11 -10z
m-4 -177 c-11 -11 -17 4 -9 23 7 18 8 18 11 1 2 -10 1 -21 -2 -24z m-4369
-365 c-3 -7 -5 -2 -5 12 0 14 2 19 5 13 2 -7 2 -19 0 -25z m0 -55 c-3 -10 -5
-4 -5 12 0 17 2 24 5 18 2 -7 2 -21 0 -30z m2 -90 c-2 -70 -6 -63 -11 20 -2
26 0 47 4 47 5 0 7 -30 7 -67z m-2 -110 c-3 -10 -5 -4 -5 12 0 17 2 24 5 18 2
-7 2 -21 0 -30z m3 -145 c0 -67 -3 -118 -7 -115 -9 10 -10 237 -1 237 5 0 8
-55 8 -122z m4407 76 c-3 -3 -12 -4 -19 -1 -8 3 -5 6 6 6 11 1 17 -2 13 -5z
m-4410 -236 c-3 -7 -5 -2 -5 12 0 14 2 19 5 13 2 -7 2 -19 0 -25z m-2 -100
c-4 -122 -6 -134 -14 -113 -4 11 -7 36 -6 55 1 19 2 52 3 73 1 20 6 37 11 37
5 0 8 -24 6 -52z m75 -217 c44 -36 96 -122 109 -184 26 -116 6 -287 -44 -372
-31 -54 -150 -164 -209 -194 -49 -25 -149 -40 -183 -27 -15 6 -13 10 12 28 17
11 23 18 14 15 -11 -4 -19 5 -28 28 -15 41 -58 87 -99 104 -18 8 -32 18 -32
23 0 6 -12 8 -29 5 -22 -5 -31 -2 -36 11 -5 14 -8 14 -15 2 -5 -8 -6 -18 -4
-22 10 -16 -14 -8 -37 13 l-24 21 23 -5 c12 -3 20 -1 17 3 -3 5 -1 11 5 15 15
9 12 25 -5 25 -8 0 -15 -4 -15 -10 0 -5 -5 -10 -11 -10 -8 0 -8 5 1 15 10 12
10 15 -1 15 -11 1 -11 3 1 13 9 7 26 26 38 44 20 29 25 31 55 22 40 -11 46
-11 27 1 -13 8 -12 10 3 10 20 0 21 6 6 66 -9 34 -15 43 -28 39 -13 -4 -20 6
-30 43 -8 26 -16 52 -18 58 -2 6 3 19 12 27 8 9 15 20 14 24 -4 22 4 37 43 79
45 49 80 68 149 79 24 4 46 11 49 16 4 5 22 10 42 11 22 2 34 7 31 15 -8 20
58 20 112 0 28 -10 66 -31 85 -46z m4340 -271 c0 -5 -2 -10 -4 -10 -3 0 -8 5
-11 10 -3 6 -1 10 4 10 6 0 11 -4 11 -10z m-58 -976 c-2 -837 -5 -979 -18
-1044 -16 -76 -33 -111 -35 -74 -1 10 -1 23 0 28 14 74 21 333 22 870 3 924 8
1198 22 1193 9 -3 11 -248 9 -973z m-2462 951 c11 -13 8 -14 -19 -9 -37 8 -44
-12 -7 -22 29 -7 41 -31 25 -50 -15 -18 -43 -18 -59 1 -11 13 -8 14 19 9 38
-8 43 12 7 26 -32 12 -41 28 -26 45 16 19 44 19 60 0z m210 -47 c0 -28 -3 -48
-7 -44 -11 11 -12 96 -2 96 5 0 9 -23 9 -52z m151 14 l16 -37 16 38 c22 52 37
47 37 -13 0 -51 -19 -72 -21 -22 l-1 27 -11 -27 c-6 -16 -14 -28 -19 -28 -4 0
-14 12 -22 28 l-15 27 -1 -28 c0 -17 -4 -26 -11 -22 -6 4 -9 23 -8 44 5 64 17
68 40 13z m219 -11 c0 -41 -3 -50 -21 -54 -13 -3 -26 1 -36 13 -16 18 -17 18
-33 -3 -15 -19 -20 -20 -34 -8 -23 19 -17 65 8 70 11 2 25 -4 32 -13 10 -14
13 -15 24 -1 7 8 21 15 31 15 11 0 18 3 18 8 -2 12 1 22 6 22 3 0 5 -22 5 -49z
m1940 39 c0 -5 -2 -10 -4 -10 -3 0 -8 5 -11 10 -3 6 -1 10 4 10 6 0 11 -4 11
-10z m-1444 -25 c1 -11 2 -25 3 -31 1 -14 51 -6 51 8 0 5 -9 6 -20 3 -24 -8
-27 10 -4 19 23 9 44 -12 44 -44 0 -20 -6 -29 -22 -33 -12 -3 -26 -3 -32 0 -6
4 -27 6 -48 4 l-38 -3 0 52 0 51 33 -3 c24 -2 32 -8 33 -23z m214 11 c0 -8 10
-16 23 -18 18 -2 23 -10 25 -40 2 -22 -1 -38 -7 -38 -6 0 -11 14 -11 30 0 20
-5 30 -15 30 -10 0 -15 -10 -15 -30 0 -16 -4 -30 -10 -30 -5 0 -10 5 -10 10 0
6 -8 5 -19 -2 -26 -16 -53 6 -49 41 2 20 9 27 31 29 18 2 27 -1 27 -11 0 -10
-7 -13 -20 -10 -16 4 -20 0 -20 -17 0 -16 4 -20 16 -16 9 3 20 6 25 6 5 0 9
18 9 40 0 22 5 40 10 40 6 0 10 -6 10 -14z m122 -23 l15 -38 18 38 c10 20 22
37 27 37 4 0 8 -25 8 -55 0 -55 -19 -80 -21 -27 l-1 27 -10 -27 c-9 -26 -28
-39 -28 -20 0 5 -7 17 -15 28 -14 18 -14 18 -9 -2 6 -24 -10 -41 -21 -23 -9
13 4 99 14 99 5 0 15 -17 23 -37z m-1385 -35 c-2 -13 -4 -3 -4 22 0 25 2 35 4
23 2 -13 2 -33 0 -45z m77 40 c13 -18 16 -19 16 -6 0 22 15 31 40 23 16 -5 20
-15 20 -50 0 -44 -15 -60 -45 -49 -23 9 -18 23 8 18 l22 -5 -22 10 c-13 6 -23
16 -23 23 0 6 -7 3 -15 -8 -14 -18 -14 -17 -15 14 0 22 -5 32 -15 32 -10 0
-15 -10 -15 -31 0 -17 -4 -28 -10 -24 -11 7 -14 58 -3 68 13 14 42 6 57 -15z
m170 6 c19 -19 12 -34 -15 -34 -11 0 -18 -4 -14 -10 3 -5 13 -6 23 -3 13 5 14
3 6 -6 -31 -33 -72 20 -44 55 16 18 25 18 44 -2z m913 5 c9 -9 9 -16 0 -29 -8
-14 -8 -22 2 -33 7 -9 8 -18 3 -21 -19 -12 -37 33 -33 82 1 15 13 16 28 1z
m450 -14 c-4 -25 -4 -25 15 -8 15 13 23 15 36 7 29 -19 27 -44 -3 -44 -14 0
-24 -4 -21 -9 3 -5 16 -7 28 -3 14 3 19 2 14 -6 -11 -18 -47 -14 -63 6 -14 16
-14 16 -9 0 4 -14 -1 -18 -22 -18 -16 0 -33 5 -39 11 -8 8 -16 7 -30 -2 -32
-19 -55 -5 -51 33 4 38 30 49 58 23 16 -14 18 -14 23 0 4 8 16 15 27 15 11 0
20 5 20 10 0 6 5 10 11 10 7 0 9 -10 6 -25z m-989 3 c19 -19 14 -28 -13 -28
-14 0 -25 -5 -25 -11 0 -6 9 -9 20 -6 24 6 27 -11 4 -20 -24 -9 -48 21 -40 51
7 28 33 35 54 14z m-227 -297 c74 -35 125 -85 161 -158 28 -58 33 -77 32 -143
0 -90 -22 -147 -84 -214 -63 -68 -137 -100 -230 -101 -65 0 -84 4 -142 33
-111 54 -176 148 -186 267 -11 148 80 285 220 331 61 20 171 13 229 -15z
m1173 -76 c16 -24 20 -25 126 -25 l110 0 0 -155 0 -155 -202 2 -203 3 -3 178
-2 177 79 0 c73 0 80 -2 95 -25z m-3499 -105 c3 -5 1 -10 -4 -10 -6 0 -11 5
-11 10 0 6 2 10 4 10 3 0 8 -4 11 -10z m-48 -72 c-3 -8 -6 -5 -6 6 -1 11 2 17
5 13 3 -3 4 -12 1 -19z m3423 -298 c0 -27 -4 -50 -10 -50 -11 0 -14 83 -3 93
12 12 13 8 13 -43z m322 -20 c4 -45 -15 -51 -20 -7 -5 39 -32 35 -32 -5 0 -25
-3 -29 -12 -20 -9 9 -15 9 -26 0 -10 -9 -18 -9 -34 1 -15 9 -23 9 -33 1 -8 -7
-19 -9 -25 -5 -5 3 -10 -2 -10 -11 0 -16 -2 -15 -20 4 -11 12 -20 30 -20 42 0
11 -4 20 -10 20 -5 0 -10 -11 -10 -25 0 -14 -4 -25 -10 -25 -5 0 -10 11 -10
25 0 14 -4 25 -10 25 -5 0 -10 -11 -10 -25 0 -14 -4 -25 -10 -25 -5 0 -10 16
-10 35 0 35 0 35 43 33 23 0 45 -6 49 -12 5 -8 8 -7 8 2 0 15 42 16 57 1 8 -8
16 -7 31 2 16 10 24 10 34 1 9 -7 18 -8 24 -3 10 10 46 19 55 14 4 -1 9 -21
11 -43z m-3016 -272 l7 -33 10 33 c11 36 30 38 35 4 4 -29 20 -28 24 1 4 26
48 38 48 13 0 -9 8 -17 18 -17 9 -1 27 -3 40 -4 12 -1 27 5 32 14 13 24 23 7
25 -44 2 -51 -16 -57 -26 -9 l-7 29 -1 -27 c-2 -40 -21 -45 -23 -6 l-1 33 -4
-32 c-5 -41 -23 -43 -23 -3 0 20 -5 30 -15 30 -10 0 -15 -10 -15 -31 0 -47
-20 -24 -21 24 l-1 42 -12 -39 c-15 -48 -33 -57 -42 -22 -7 29 -24 25 -24 -5
0 -37 -28 -19 -39 25 -13 54 -13 56 -2 56 5 0 13 -15 17 -32z m199 22 c3 -5
-1 -10 -10 -10 -9 0 -13 5 -10 10 3 6 8 10 10 10 2 0 7 -4 10 -10z m210 -4
c10 -7 16 -20 12 -29 -9 -25 4 -28 23 -5 20 25 47 19 58 -12 7 -19 9 -19 27
-5 16 12 17 14 3 9 -22 -8 -24 14 -2 23 8 3 20 1 26 -5 7 -7 19 -7 34 -2 24 9
34 -2 14 -15 -5 -3 -10 -17 -10 -31 0 -21 -4 -24 -38 -24 -21 0 -43 5 -50 12
-9 9 -12 9 -12 0 0 -15 -46 -16 -56 -1 -4 8 -9 8 -17 0 -6 -6 -24 -11 -39 -11
-27 0 -28 1 -28 55 0 46 3 55 18 55 10 0 27 -6 37 -14z m275 -45 c0 -40 -3
-50 -20 -54 -24 -6 -50 17 -50 43 0 20 32 44 44 33 3 -3 6 1 6 10 0 10 5 17
10 17 6 0 10 -22 10 -49z m654 23 c9 -8 16 -21 16 -27 0 -8 4 -7 12 1 17 17
47 15 54 -3 6 -14 8 -14 18 1 14 19 47 16 54 -6 4 -12 3 -13 -10 -3 -17 15
-28 7 -28 -20 0 -14 5 -18 20 -14 25 6 27 -8 3 -18 -12 -4 -23 0 -33 13 -14
18 -15 18 -31 -2 -17 -21 -17 -21 -38 -2 -17 15 -24 17 -33 8 -7 -7 -25 -12
-40 -12 -27 0 -28 2 -28 50 0 46 2 50 24 50 14 0 32 -7 40 -16z m-1036 -6 c17
-17 15 -58 -4 -65 -36 -13 -68 33 -44 62 15 18 32 19 48 3z m2304 0 c9 -7 18
-20 21 -28 4 -10 6 -7 6 8 1 17 7 22 30 22 37 0 59 -25 44 -49 -7 -11 -8 -23
-1 -34 6 -11 5 -17 -2 -17 -6 0 -13 7 -16 15 -4 8 -12 15 -20 15 -8 0 -14 -7
-14 -15 0 -24 -20 -17 -21 8 0 21 -1 21 -8 2 -5 -11 -7 -23 -4 -27 6 -11 -59
3 -74 15 -21 16 -15 64 9 81 27 19 30 19 50 4z m-741 -5 c4 -49 2 -82 -6 -80
-11 4 -26 67 -19 79 7 10 24 10 25 1z m953 1 c9 -3 16 -13 16 -22 0 -12 -3
-13 -12 -4 -19 19 -46 14 -53 -9 -10 -30 18 -57 40 -39 20 17 32 5 15 -15 -34
-41 -95 19 -72 69 11 26 34 32 66 20z m166 -47 c0 -47 -2 -53 -22 -54 -12 -1
-28 2 -34 8 -9 7 -19 6 -32 -2 -17 -10 -24 -10 -37 1 -24 20 -16 64 14 68 13
2 27 -2 31 -8 8 -13 48 4 63 28 14 21 17 14 17 -41z m-1460 13 c0 -20 5 -30
15 -30 10 0 15 10 15 31 0 17 4 28 10 24 6 -3 10 -19 10 -34 0 -32 -34 -49
-57 -29 -15 12 -18 68 -3 68 6 0 10 -13 10 -30z m158 -14 c2 -25 0 -36 -7 -31
-6 3 -11 17 -11 31 0 13 -4 24 -10 24 -5 0 -10 -11 -10 -24 0 -14 -4 -28 -10
-31 -6 -4 -10 7 -10 25 0 40 -22 36 -31 -6 -6 -26 -7 -24 -8 13 l-1 42 48 -2
c47 -2 47 -2 50 -41z m56 38 c25 -10 20 -44 -6 -45 -22 -1 -22 -1 2 -9 22 -6
23 -8 8 -15 -10 -4 -25 -5 -33 -1 -18 7 -20 47 -3 64 14 14 12 14 32 6z m87
-32 c4 -18 3 -35 -2 -38 -5 -3 -9 9 -9 25 0 21 -5 31 -15 31 -10 0 -15 -10
-15 -30 0 -16 -4 -30 -10 -30 -5 0 -10 15 -10 34 0 25 5 36 18 39 29 8 36 2
43 -31z m1229 3 c16 -19 -1 -65 -24 -65 -22 0 -39 28 -32 55 7 28 36 34 56 10z
m-1750 -492 c-1 -20 -19 -35 -35 -29 -14 5 -15 9 -5 21 13 16 40 21 40 8z
m-1685 -273 c3 -5 1 -10 -4 -10 -6 0 -11 5 -11 10 0 6 2 10 4 10 3 0 8 -4 11
-10z m3955 -152 c0 -57 -147 -188 -211 -188 -16 0 -7 10 37 44 70 52 94 74
129 121 28 36 45 45 45 23z m-4040 -132 c0 -2 -7 -7 -16 -10 -8 -3 -12 -2 -9
4 6 10 25 14 25 6z m3803 -83 c-7 -2 -19 -2 -25 0 -7 3 -2 5 12 5 14 0 19 -2
13 -5z m-3476 -29 c-3 -3 -12 -4 -19 -1 -8 3 -5 6 6 6 11 1 17 -2 13 -5z m331
-11 c-32 -2 -86 -2 -120 0 -35 2 -9 3 57 3 66 0 94 -1 63 -3z m105 0 c-7 -2
-19 -2 -25 0 -7 3 -2 5 12 5 14 0 19 -2 13 -5z m44 1 c-3 -3 -12 -4 -19 -1 -8
3 -5 6 6 6 11 1 17 -2 13 -5z m71 -1 c-10 -2 -26 -2 -35 0 -10 3 -2 5 17 5 19
0 27 -2 18 -5z m-372 -48 c-3 -8 -1 -15 4 -15 6 0 10 7 10 16 0 12 6 15 23 10
13 -3 206 -6 428 -6 222 -1 410 -5 418 -9 20 -13 -51 -101 -191 -236 -146
-143 -209 -197 -285 -248 -35 -23 -63 -45 -63 -49 0 -4 -16 -10 -35 -14 -19
-3 -38 -10 -41 -15 -7 -13 -35 -11 -67 4 -31 14 -48 55 -52 128 -1 32 -8 54
-18 62 -9 7 -17 28 -19 47 -1 19 -6 40 -11 47 -5 7 -6 17 -3 22 4 6 7 26 8 45
1 19 5 33 10 30 4 -3 8 -1 8 5 0 5 -15 20 -32 32 -18 12 -41 30 -50 40 -10 10
-25 22 -34 27 -17 10 -28 92 -12 92 6 0 8 -7 4 -15z m2758 -279 c-10 -8 -21
-12 -23 -10 -3 2 4 11 15 18 10 8 21 12 23 10 3 -2 -4 -11 -15 -18z m-261
-351 c-3 -9 -8 -14 -10 -11 -3 3 -2 9 2 15 9 16 15 13 8 -4z"/>
<path d="M7196 10736 c3 -8 0 -17 -7 -22 -7 -4 -15 -2 -17 4 -4 14 -22 6 -22
-9 0 -6 5 -7 10 -4 22 14 8 -14 -15 -29 -14 -9 -25 -22 -25 -28 0 -6 23 12 50
40 35 34 57 49 71 47 11 -2 18 -1 15 3 -2 4 -18 9 -35 10 -23 2 -29 -1 -25
-12z"/>
<path d="M10438 10733 c7 -3 16 -2 19 1 4 3 -2 6 -13 5 -11 0 -14 -3 -6 -6z"/>
<path d="M10630 10731 c0 -4 -48 -9 -107 -10 -60 -1 -112 -6 -120 -13 -10 -8
-12 -42 -11 -132 l2 -121 6 125 5 125 127 0 c117 0 125 1 117 18 -10 18 -19
22 -19 8z"/>
<path d="M8837 10713 c-4 -3 -7 -11 -7 -17 0 -6 5 -5 12 2 6 6 9 14 7 17 -3 3
-9 2 -12 -2z"/>
<path d="M8873 10654 c-34 -36 -65 -65 -70 -64 -4 0 -9 -9 -11 -20 -3 -15 3
-23 17 -27 25 -6 27 -16 6 -33 -9 -7 -13 -21 -10 -31 4 -11 2 -19 -4 -19 -6 0
-11 -5 -11 -12 0 -23 28 16 43 60 15 42 15 42 -10 42 -14 0 -23 4 -21 9 2 5
36 43 76 85 40 42 69 76 64 76 -4 0 -35 -30 -69 -66z"/>
<path d="M10365 10710 c-3 -5 -1 -10 4 -10 6 0 11 5 11 10 0 6 -2 10 -4 10 -3
0 -8 -4 -11 -10z"/>
<path d="M7243 10685 c0 -8 4 -12 9 -9 5 3 6 10 3 15 -9 13 -12 11 -12 -6z"/>
<path d="M10667 10693 c-4 -3 -7 -57 -7 -118 0 -86 -3 -115 -15 -125 -10 -8
-49 -11 -129 -8 -68 2 -108 -1 -99 -6 8 -4 63 -8 122 -7 86 1 108 5 119 18 8
11 12 55 12 129 0 81 4 114 13 117 6 3 7 6 1 6 -6 1 -14 -2 -17 -6z"/>
<path d="M7216 10673 c-6 -14 -5 -15 5 -6 7 7 10 15 7 18 -3 3 -9 -2 -12 -12z"/>
<path d="M8942 10673 c-5 -10 -12 -30 -16 -45 -5 -23 -3 -28 11 -27 10 0 13 3
6 5 -9 4 -8 15 2 45 15 40 13 52 -3 22z"/>
<path d="M7345 10661 c-8 -27 -4 -33 12 -16 6 6 7 18 3 25 -6 9 -10 7 -15 -9z"/>
<path d="M10460 10670 c0 -5 7 -7 15 -4 11 5 13 2 8 -12 -4 -12 -3 -15 5 -10
19 12 14 36 -8 36 -11 0 -20 -4 -20 -10z"/>
<path d="M10516 10664 c-3 -9 -6 -17 -6 -18 0 -1 15 0 33 3 31 4 31 5 7 12
-23 6 -22 7 8 8 20 1 31 -3 27 -9 -9 -14 9 -12 24 3 10 10 11 8 5 -7 -5 -13
-4 -17 4 -12 7 4 12 13 12 20 0 21 -106 21 -114 0z"/>
<path d="M9049 10654 c-7 -9 -14 -23 -15 -32 -1 -10 -5 -28 -9 -42 -4 -16 -1
-13 9 9 9 18 16 39 16 47 0 7 8 18 18 23 9 6 12 11 6 11 -6 0 -17 -7 -25 -16z"/>
<path d="M9106 10647 c3 -10 9 -15 12 -12 3 3 0 11 -7 18 -10 9 -11 8 -5 -6z"/>
<path d="M10432 10563 c1 -54 3 -79 5 -56 3 27 8 40 16 37 20 -7 13 97 -7 108
-14 8 -16 -1 -14 -89z m21 62 c-3 -9 -8 -14 -10 -11 -3 3 -2 9 2 15 9 16 15
13 8 -4z"/>
<path d="M9097 10603 c20 -60 22 -62 21 -24 -1 17 -5 31 -10 31 -4 0 -8 6 -8
14 0 8 -4 17 -9 21 -6 3 -3 -16 6 -42z"/>
<path d="M9220 10631 c0 -8 -7 -11 -15 -7 -8 3 -15 1 -15 -3 0 -5 7 -12 15
-15 16 -6 33 19 21 31 -3 4 -6 1 -6 -6z"/>
<path d="M9261 10628 c-1 -9 5 -19 12 -22 10 -5 10 -7 0 -12 -7 -3 -13 -18
-13 -33 0 -36 40 -74 72 -68 22 4 22 4 -3 6 -60 3 -75 92 -19 114 9 3 4 6 -12
6 -14 1 -29 7 -31 14 -4 7 -6 6 -6 -5z"/>
<path d="M7135 10620 c3 -5 8 -10 11 -10 2 0 4 5 4 10 0 6 -5 10 -11 10 -5 0
-7 -4 -4 -10z"/>
<path d="M9137 10620 c6 -8 13 -30 15 -49 3 -33 25 -57 25 -27 0 8 -5 13 -11
10 -6 -3 -3 1 6 8 11 9 14 19 8 28 -5 8 -6 18 -3 24 3 5 1 6 -6 2 -6 -4 -20
-2 -29 6 -15 11 -15 11 -5 -2z"/>
<path d="M9330 10619 c0 -4 7 -9 15 -13 8 -3 15 0 15 6 0 7 5 7 14 -2 8 -6 12
-19 9 -28 -5 -14 -3 -15 8 -4 11 10 10 15 -4 29 -17 17 -57 26 -57 12z"/>
<path d="M7229 10597 c20 -22 20 -25 5 -38 -14 -12 -20 -9 -43 17 -25 28 -28
29 -44 13 -16 -15 -16 -17 -2 -23 9 -3 13 -2 10 3 -13 22 14 18 35 -4 29 -31
41 -31 59 -3 10 16 10 23 2 26 -26 9 -8 21 37 25 41 3 39 4 -17 5 l-64 2 22
-23z"/>
<path d="M8986 10598 c3 -4 9 -8 15 -8 5 0 9 4 9 8 0 5 -7 9 -15 9 -8 0 -12
-4 -9 -9z"/>
<path d="M10520 10600 c0 -5 7 -7 15 -4 8 4 15 8 15 10 0 2 -7 4 -15 4 -8 0
-15 -4 -15 -10z"/>
<path d="M10592 10603 c15 -2 29 -12 31 -21 3 -12 5 -10 6 6 1 19 -4 22 -31
21 -30 -2 -30 -2 -6 -6z"/>
<path d="M8939 10563 c-13 -15 -17 -22 -8 -15 9 6 19 10 22 7 4 -3 5 -2 2 2
-3 3 0 12 6 20 21 25 3 13 -22 -14z"/>
<path d="M9215 10581 c-3 -5 -1 -12 5 -16 5 -3 10 1 10 9 0 18 -6 21 -15 7z"/>
<path d="M9314 10579 c-4 -7 -3 -9 4 -5 5 3 13 0 15 -6 4 -9 6 -10 6 -1 1 17
-16 25 -25 12z"/>
<path d="M10501 10544 l2 -49 7 40 7 40 2 -40 c0 -23 -4 -46 -11 -53 -9 -9 -8
-12 5 -12 13 0 17 9 17 43 0 24 6 49 13 56 10 11 9 12 -1 7 -7 -4 -19 -2 -27
4 -13 11 -15 5 -14 -36z"/>
<path d="M9311 10544 c0 -11 3 -14 6 -6 3 7 2 16 -1 19 -3 4 -6 -2 -5 -13z"/>
<path d="M9374 10536 c-8 -17 -8 -23 2 -23 16 0 25 20 15 35 -4 6 -10 2 -17
-12z"/>
<path d="M9003 10528 c-2 -18 0 -20 7 -8 12 18 13 30 2 30 -4 0 -9 -10 -9 -22z"/>
<path d="M9216 10542 c-2 -4 -1 -14 5 -22 7 -12 9 -10 9 8 0 23 -5 28 -14 14z"/>
<path d="M9050 10528 c0 -4 9 -8 19 -8 10 0 21 -7 25 -15 3 -8 10 -15 16 -15
6 0 4 7 -4 16 -9 8 -16 19 -16 24 0 5 -9 8 -20 7 -11 -1 -20 -5 -20 -9z"/>
<path d="M10590 10530 c0 -5 7 -7 15 -4 11 4 15 0 15 -17 0 -12 -3 -19 -7 -16
-3 4 -12 2 -20 -5 -7 -6 -17 -8 -20 -4 -4 4 -2 11 6 15 10 7 9 10 -3 14 -12 5
-16 0 -16 -18 0 -22 4 -25 35 -25 33 0 35 2 35 35 0 28 -4 35 -20 35 -11 0
-20 -4 -20 -10z"/>
<path d="M7190 10518 c0 -11 12 -10 30 2 12 7 10 9 -8 7 -12 0 -22 -5 -22 -9z"/>
<path d="M8941 10522 c-1 -19 27 -82 36 -82 4 0 15 5 23 11 12 8 11 9 -7 4
-18 -5 -23 1 -36 37 -9 24 -16 37 -16 30z"/>
<path d="M10453 10508 c1 -15 6 -30 10 -34 11 -11 8 29 -3 46 -8 12 -10 9 -7
-12z"/>
<path d="M8878 10503 c-9 -10 -13 -23 -11 -30 2 -6 -1 -15 -8 -19 -8 -4 -9 -3
-5 4 4 7 2 12 -3 12 -6 0 -11 -7 -11 -15 0 -20 32 -36 51 -24 11 7 11 9 -3 9
-22 0 -22 2 -4 45 17 39 16 43 -6 18z"/>
<path d="M8970 10491 c0 -6 4 -13 10 -16 6 -3 7 1 4 9 -7 18 -14 21 -14 7z"/>
<path d="M9163 10493 c9 -2 23 -2 30 0 6 3 -1 5 -18 5 -16 0 -22 -2 -12 -5z"/>
<path d="M9258 10493 c7 -3 16 -2 19 1 4 3 -2 6 -13 5 -11 0 -14 -3 -6 -6z"/>
<path d="M8915 10450 c3 -5 16 -15 28 -21 l22 -11 -22 21 c-23 22 -39 28 -28
11z"/>
<path d="M8835 10390 c-3 -5 -1 -10 4 -10 6 0 11 5 11 10 0 6 -2 10 -4 10 -3
0 -8 -4 -11 -10z"/>
<path d="M8973 10333 c15 -2 37 -2 50 0 12 2 0 4 -28 4 -27 0 -38 -2 -22 -4z"/>
<path d="M6962 9563 c1 -123 3 -156 5 -89 3 102 14 143 33 131 5 -3 10 0 12 6
2 7 22 12 44 12 32 0 40 4 40 19 0 13 -9 21 -28 25 -31 6 -37 27 -12 37 25 10
34 7 34 -11 0 -24 13 -7 16 20 3 35 -6 40 -31 17 -21 -19 -23 -20 -36 -3 -12
15 -12 16 2 11 9 -3 16 -1 16 5 0 7 -20 13 -49 15 l-48 2 2 -197z m33 179 c6
-4 16 -15 23 -24 13 -16 11 -17 -17 -15 -25 2 -31 6 -31 25 0 23 8 27 25 14z
m-11 -66 c-3 -7 2 -16 10 -19 10 -4 16 -1 16 8 0 8 4 15 9 15 11 0 9 -32 -4
-46 -12 -14 -28 -7 -19 8 5 7 1 9 -9 5 -13 -5 -17 -1 -17 18 0 14 4 25 10 25
5 0 7 -6 4 -14z m86 -36 c0 -5 -8 -10 -17 -10 -15 0 -16 2 -3 10 19 12 20 12
20 0z m-80 -20 c0 -5 -4 -10 -10 -10 -5 0 -10 5 -10 10 0 6 5 10 10 10 6 0 10
-4 10 -10z"/>
<path d="M6980 9726 c0 -2 7 -7 16 -10 8 -3 12 -2 9 4 -6 10 -25 14 -25 6z"/>
<path d="M7156 9725 c-11 -8 -15 -15 -9 -15 7 0 15 5 18 10 4 6 11 7 17 4 7
-4 8 -2 4 4 -9 14 -7 15 -30 -3z"/>
<path d="M7130 9649 c0 -5 5 -7 10 -4 6 3 10 8 10 11 0 2 -4 4 -10 4 -5 0 -10
-5 -10 -11z"/>
<path d="M7420 9635 c-11 -13 -10 -14 4 -9 9 3 16 10 16 15 0 13 -6 11 -20 -6z"/>
<path d="M7025 9600 c-3 -5 -1 -10 4 -10 6 0 11 5 11 10 0 6 -2 10 -4 10 -3 0
-8 -4 -11 -10z"/>
<path d="M6995 9540 c-3 -5 1 -10 10 -10 9 0 13 5 10 10 -3 6 -8 10 -10 10 -2
0 -7 -4 -10 -10z"/>
<path d="M7345 9530 c-3 -5 -1 -10 4 -10 6 0 11 5 11 10 0 6 -2 10 -4 10 -3 0
-8 -4 -11 -10z"/>
<path d="M7370 9490 c0 -5 5 -10 11 -10 5 0 7 5 4 10 -3 6 -8 10 -11 10 -2 0
-4 -4 -4 -10z"/>
<path d="M7340 9461 c0 -6 5 -13 10 -16 6 -3 10 1 10 9 0 9 -4 16 -10 16 -5 0
-10 -4 -10 -9z"/>
<path d="M7382 9420 c12 -19 28 -27 28 -14 0 7 -27 34 -34 34 -4 0 -1 -9 6
-20z"/>
<path d="M7210 9369 c0 -5 5 -7 10 -4 6 3 10 8 10 11 0 2 -4 4 -10 4 -5 0 -10
-5 -10 -11z"/>
<path d="M7317 9332 c-7 -38 -10 -42 -23 -31 -10 8 -12 15 -4 23 5 5 10 17 10
26 0 13 -1 13 -10 0 -9 -13 -10 -13 -10 0 0 13 -2 13 -9 1 -5 -8 -7 -21 -4
-30 2 -9 -2 -5 -10 8 -10 16 -15 19 -19 10 -6 -18 24 -47 41 -41 8 3 12 -1 9
-9 -3 -8 -1 -26 3 -42 6 -23 4 -29 -19 -42 l-27 -16 33 6 c28 6 32 4 32 -14 0
-12 -5 -21 -11 -21 -5 0 -7 5 -3 11 4 8 0 8 -15 0 -21 -12 -29 -31 -12 -31 11
0 21 -36 12 -47 -3 -4 -4 -7 -2 -5 2 1 13 -5 23 -15 10 -9 18 -13 18 -8 0 4 8
1 18 -6 14 -11 15 -11 5 1 -15 17 -17 40 -3 40 6 0 10 -8 10 -17 0 -15 2 -16
10 -3 5 8 10 13 11 10 6 -30 5 -56 -2 -61 -5 -3 15 -4 44 -2 71 4 77 5 71 15
-3 4 -14 3 -25 -2 -15 -9 -19 -7 -19 6 0 13 -3 14 -15 4 -12 -10 -15 -10 -15
2 0 7 -9 21 -20 31 -28 23 -27 51 1 42 15 -5 20 -3 17 6 -3 8 -14 15 -26 17
-26 4 -33 33 -12 49 13 10 12 14 -7 34 l-22 23 -11 -28 c-6 -16 -15 -24 -21
-20 -8 4 -7 9 2 15 10 6 11 9 2 9 -7 0 -13 8 -13 18 0 14 2 15 9 2 8 -12 14
-9 37 13 29 29 27 50 -3 26 -9 -8 -14 -9 -11 -4 3 6 3 28 -1 50 l-7 40 -7 -43z
m23 -142 c0 -5 -5 -10 -11 -10 -5 0 -7 5 -4 10 3 6 8 10 11 10 2 0 4 -4 4 -10z
m19 -75 c1 -5 -12 -11 -28 -12 -24 -2 -29 2 -27 21 0 13 6 22 12 19 6 -2 15 4
19 14 7 16 9 15 15 -7 5 -14 8 -29 9 -35z"/>
<path d="M6963 9325 c0 -22 2 -30 4 -17 2 12 2 30 0 40 -3 9 -5 -1 -4 -23z"/>
<path d="M7190 9341 c0 -5 7 -12 16 -15 14 -5 15 -4 4 9 -14 17 -20 19 -20 6z"/>
<path d="M7407 9316 c-3 -7 0 -19 6 -26 9 -10 8 -12 -6 -7 -15 6 -16 4 -6 -14
6 -12 9 -32 6 -45 -2 -13 0 -21 4 -18 5 3 9 0 9 -5 0 -6 -7 -11 -15 -11 -13 0
-14 -4 -5 -20 8 -15 16 -18 28 -12 20 10 33 10 50 -2 8 -5 18 -4 25 3 8 8 6
11 -7 11 -9 0 -15 4 -12 9 4 5 -3 7 -14 4 -12 -3 -20 0 -20 7 0 7 -9 2 -20
-11 l-20 -24 14 29 c8 16 12 35 9 44 -4 9 -2 13 4 9 6 -4 11 3 11 18 0 14 -5
25 -10 25 -5 0 -6 5 -3 10 3 6 0 17 -8 25 -12 12 -16 12 -20 1z"/>
<path d="M8030 9295 c0 -8 4 -15 10 -15 5 0 7 7 4 15 -4 8 -8 15 -10 15 -2 0
-4 -7 -4 -15z"/>
<path d="M7361 9261 c-10 -6 -9 -10 5 -15 20 -8 25 -4 16 11 -4 7 -13 9 -21 4z"/>
<path d="M6958 9230 c-11 -38 -10 -56 3 -43 6 6 9 23 7 39 l-3 29 -7 -25z"/>
<path d="M8088 9203 c7 -3 16 -2 19 1 4 3 -2 6 -13 5 -11 0 -14 -3 -6 -6z"/>
<path d="M7550 9190 c-12 -8 -12 -10 3 -16 21 -8 35 2 21 16 -5 5 -15 6 -24 0z"/>
<path d="M8002 9191 c-11 -7 -11 -9 2 -14 10 -4 16 -1 16 8 0 17 -1 17 -18 6z"/>
<path d="M7671 9167 c-13 -21 -12 -21 5 -5 10 10 16 20 13 22 -3 3 -11 -5 -18
-17z"/>
<path d="M7920 9160 c0 -22 -15 -27 -23 -7 -4 9 -6 9 -6 -1 -1 -15 24 -26 43
-19 9 4 12 14 9 26 -7 27 -23 27 -23 1z"/>
<path d="M6950 8995 c0 -98 2 -176 4 -174 8 8 11 338 3 345 -4 4 -7 -73 -7
-171z"/>
<path d="M7220 9160 c-12 -8 -11 -10 8 -10 12 0 22 5 22 10 0 13 -11 13 -30 0z"/>
<path d="M7520 9145 c0 -8 2 -15 4 -15 2 0 6 7 10 15 3 8 1 15 -4 15 -6 0 -10
-7 -10 -15z"/>
<path d="M8010 9135 c0 -25 -23 -35 -35 -15 -3 6 1 10 9 10 9 0 16 4 16 10 0
6 -11 5 -26 -2 -15 -7 -21 -14 -15 -16 6 -2 11 -8 11 -13 0 -13 -37 -11 -45 2
-4 6 -13 8 -21 5 -8 -3 -14 -1 -14 4 0 6 -9 10 -21 10 -13 0 -18 -4 -13 -12
11 -18 12 -48 2 -54 -5 -3 -7 -1 -6 4 6 21 -18 13 -29 -9 -11 -21 -13 -21 -13
-5 0 18 -1 18 -12 4 -18 -22 -60 -34 -52 -15 4 11 -5 16 -35 19 -21 2 -38 1
-37 -2 2 -3 -11 -17 -28 -31 -31 -27 -32 -27 -55 -8 -13 10 -18 19 -12 19 19
0 12 19 -11 31 -18 10 -20 9 -15 -4 3 -9 1 -18 -6 -21 -9 -5 -9 -7 1 -12 10
-5 10 -9 1 -20 -14 -17 -4 -48 12 -38 8 4 9 3 5 -5 -6 -9 -11 -9 -21 -1 -9 8
-14 6 -19 -5 -3 -8 -10 -15 -16 -15 -6 0 -9 4 -6 8 2 4 -4 9 -15 9 -27 2 -24
-14 5 -21 13 -3 26 -13 30 -21 3 -9 2 -13 -4 -10 -17 10 -49 -5 -55 -26 -4
-10 -15 -19 -26 -19 -10 0 -19 -5 -19 -11 0 -5 4 -8 9 -5 13 9 42 -4 35 -16
-3 -5 -12 -7 -18 -5 -7 3 -19 1 -27 -4 -11 -7 -11 -9 4 -9 9 0 17 -4 17 -10 0
-5 -5 -10 -11 -10 -5 0 -7 -5 -3 -11 4 -8 -1 -9 -17 -4 -17 4 -20 4 -10 -4 19
-12 23 -54 5 -47 -7 3 -27 -8 -44 -24 -26 -24 -28 -29 -13 -33 17 -4 17 -5 1
-6 -22 -1 -22 -5 -2 -36 15 -23 15 -25 0 -25 -10 0 -14 -5 -11 -10 4 -6 12 -7
18 -4 9 5 9 4 1 -5 -6 -6 -9 -25 -6 -41 3 -21 8 -27 21 -23 13 4 13 3 2 -5 -7
-5 -11 -14 -7 -20 3 -6 -3 -14 -15 -17 -11 -4 -18 -9 -15 -12 3 -4 0 -13 -7
-22 -11 -14 -10 -14 5 -2 15 11 19 11 24 -3 3 -9 10 -13 15 -10 19 11 29 -8
12 -24 -12 -12 -18 -13 -21 -4 -2 7 -8 9 -13 6 -6 -3 -2 -12 8 -20 16 -12 16
-15 3 -24 -11 -7 -11 -10 -2 -10 7 0 10 -5 7 -10 -4 -6 -11 -7 -17 -4 -7 4 -8
2 -4 -4 4 -7 2 -12 -3 -12 -6 0 -11 -5 -11 -10 0 -6 8 -5 20 2 16 10 22 10 32
-1 11 -12 10 -13 -4 -8 -12 4 -18 1 -18 -9 0 -9 5 -13 13 -9 6 4 4 0 -6 -9
-13 -10 -17 -21 -12 -35 4 -12 2 -21 -4 -21 -6 0 -11 5 -11 12 0 6 -2 9 -5 7
-7 -8 7 -49 15 -44 5 3 6 -4 3 -15 -3 -12 -14 -20 -26 -20 -19 0 -20 -1 -2
-20 10 -11 13 -20 7 -20 -7 0 -12 -7 -12 -16 0 -9 5 -12 12 -8 8 5 9 0 6 -14
-4 -12 -2 -22 4 -22 5 0 6 -4 3 -10 -3 -5 -1 -18 5 -29 8 -16 6 -22 -7 -31
-16 -11 -16 -11 -1 -6 10 3 20 1 23 -4 4 -6 -2 -10 -12 -10 -14 0 -15 -2 -4
-9 8 -5 21 -7 30 -4 13 4 13 3 2 -5 -8 -6 -11 -17 -8 -26 4 -9 2 -16 -2 -16
-5 0 -11 6 -14 13 -2 6 -8 8 -13 4 -5 -5 -1 -13 9 -18 9 -6 17 -17 17 -24 0
-8 7 -15 16 -15 19 0 9 -38 -15 -58 -15 -12 -14 -13 2 -8 12 4 17 0 17 -15 0
-11 5 -17 10 -14 6 3 10 1 10 -4 0 -6 -10 -11 -22 -11 -21 0 -21 0 -2 -14 10
-8 17 -16 14 -18 -3 -2 -18 -14 -34 -26 -16 -12 -24 -23 -17 -23 6 -1 16 -2
21 -3 13 -1 13 -21 1 -21 -5 0 -13 -4 -18 -9 -4 -5 -3 -6 4 -2 6 3 14 2 18 -4
3 -5 1 -10 -4 -10 -6 0 -11 -4 -11 -10 0 -5 6 -7 14 -4 8 3 17 1 21 -5 3 -6 2
-11 -4 -11 -6 0 -10 -12 -10 -27 2 -89 -3 -125 -19 -130 -13 -6 -13 -8 4 -14
18 -7 18 -8 0 -8 -15 -1 -16 -4 -6 -16 7 -8 9 -15 5 -15 -4 0 -2 -7 5 -15 8
-9 8 -15 2 -15 -6 0 -13 6 -16 13 -5 9 -7 9 -12 -1 -3 -6 -11 -9 -17 -5 -7 3
-8 2 -4 -3 5 -5 12 -9 15 -9 23 -1 31 -17 19 -36 -10 -16 -9 -21 3 -30 11 -7
8 -8 -12 -3 -23 5 -27 3 -25 -14 0 -12 5 -18 9 -16 5 3 5 11 1 17 -4 7 0 6 10
-2 9 -7 17 -22 17 -32 0 -11 5 -19 10 -19 6 0 9 -3 9 -7 -3 -21 2 -33 12 -27
7 4 10 1 7 -6 -2 -8 -10 -16 -18 -18 -8 -3 -10 0 -5 8 6 10 4 12 -8 7 -10 -3
-17 -2 -17 3 0 6 5 10 11 10 5 0 7 5 4 10 -3 6 -11 10 -17 10 -6 0 -8 -3 -5
-7 4 -3 -1 -12 -11 -20 -9 -8 -11 -12 -4 -8 17 9 15 -3 -8 -35 -11 -16 -17
-35 -14 -44 5 -12 2 -15 -12 -9 -16 6 -16 5 2 -14 17 -18 20 -19 32 -5 11 14
12 14 13 -4 0 -10 3 -31 5 -46 3 -16 0 -28 -5 -28 -6 0 -8 6 -5 14 7 18 -43
31 -62 15 -8 -7 -12 -14 -9 -17 2 -3 11 1 19 7 12 10 14 9 9 -8 -3 -12 -1 -21
6 -21 6 0 11 -4 11 -10 0 -5 -18 -10 -40 -10 -22 0 -40 -4 -40 -10 0 -5 -8 -6
-17 -3 -16 6 -17 5 -3 -12 15 -19 14 -19 -12 -2 -16 10 -28 13 -28 8 0 -5 -9
-13 -21 -16 -11 -4 -18 -9 -16 -12 3 -2 15 1 27 7 17 9 25 9 34 -1 8 -9 8 -10
-2 -5 -7 4 -15 1 -18 -9 -5 -12 -14 -14 -34 -10 -16 3 -31 2 -35 -4 -4 -7 0
-8 11 -4 11 4 15 2 11 -4 -8 -13 17 -36 28 -25 5 4 5 1 1 -6 -4 -7 -12 -10
-17 -7 -5 4 -9 4 -9 0 0 -3 10 -9 22 -14 20 -7 19 -9 -14 -13 -21 -2 -35 -2
-33 1 3 2 -3 10 -13 18 -9 7 -12 13 -7 12 20 -3 35 1 35 9 0 14 -59 9 -65 -5
-2 -8 -1 -12 4 -9 5 3 12 -1 15 -10 3 -8 2 -12 -4 -9 -6 3 -10 -3 -10 -14 0
-12 4 -21 10 -21 5 0 6 -7 3 -17 -5 -11 -3 -14 6 -8 10 6 11 2 6 -15 -6 -20
-5 -21 15 -10 11 6 26 9 33 6 7 -2 4 -5 -5 -5 -10 -1 -18 -7 -18 -15 0 -10
-11 -13 -35 -12 -33 3 -63 16 -35 16 7 0 11 2 8 5 -3 3 -12 3 -21 -1 -14 -5
-14 -8 -2 -20 7 -8 20 -14 28 -14 8 0 14 -6 13 -12 0 -7 2 -13 5 -13 3 0 13
-8 23 -18 14 -13 21 -15 31 -7 10 9 16 6 25 -9 6 -12 7 -21 1 -21 -5 0 -12 6
-14 13 -4 10 -6 10 -6 0 -1 -7 -10 -13 -22 -13 -13 0 -18 -4 -13 -12 5 -7 3
-8 -5 -3 -7 4 -21 26 -32 49 -10 22 -17 31 -14 19 3 -12 1 -24 -4 -27 -16 -10
0 -38 16 -31 12 4 14 0 10 -15 -3 -11 -1 -23 4 -26 5 -3 9 0 9 5 0 6 5 11 11
11 5 0 7 -6 3 -12 -5 -9 -2 -9 9 1 10 8 17 9 17 3 0 -6 9 -9 20 -7 14 3 21 -2
24 -18 7 -37 2 -64 -11 -64 -7 0 -10 4 -7 9 3 4 -1 8 -8 8 -10 0 -10 2 1 9 15
10 7 31 -13 31 -9 0 -12 -10 -10 -32 2 -17 1 -28 -3 -25 -3 4 -12 -1 -20 -11
-14 -16 -14 -16 -9 0 3 10 1 20 -4 23 -6 4 -10 0 -10 -8 0 -22 -27 -28 -45
-10 -13 13 -14 17 -3 24 10 7 10 9 -2 10 -8 1 -19 1 -25 0 -5 -1 -1 6 9 14 14
10 22 12 27 4 4 -8 9 -8 13 -1 12 20 -35 25 -49 5 -19 -23 -18 -30 1 -37 8 -3
13 -10 10 -14 -6 -10 36 -32 60 -32 8 0 13 -4 9 -10 -3 -5 -13 -6 -22 -3 -15
6 -16 5 -3 -9 8 -9 18 -14 23 -11 4 2 7 0 7 -5 0 -6 -8 -13 -17 -17 -17 -6
-17 -7 0 -16 21 -12 13 -29 -14 -29 -11 0 -17 -4 -14 -10 3 -5 2 -10 -3 -10
-6 0 -12 7 -16 15 -6 17 -24 19 -45 6 -12 -8 -12 -12 -2 -25 11 -13 11 -16 -3
-16 -22 0 -21 39 2 57 15 13 15 14 0 9 -15 -4 -17 11 -18 171 0 153 1 175 15
169 8 -3 15 -1 15 4 0 6 -7 10 -15 10 -8 0 -15 7 -15 16 0 10 5 14 16 10 8 -3
12 -2 9 4 -10 16 22 11 39 -6 9 -8 16 -11 16 -6 0 15 -48 43 -55 32 -19 -31
-24 9 -22 190 1 110 -1 200 -5 200 -5 0 -8 -296 -9 -657 0 -362 -1 -736 -3
-830 l-2 -173 275 -1 c152 0 292 -2 311 -4 67 -5 1206 -20 1558 -20 303 0 355
2 365 15 7 8 24 21 40 29 15 8 23 17 17 21 -6 4 -8 14 -4 24 3 9 3 16 -2 15
-5 -1 -20 -1 -33 0 -20 1 -21 3 -11 16 9 11 9 15 1 15 -7 0 -9 5 -6 10 5 8 11
7 21 -1 7 -6 12 -15 9 -18 -2 -4 2 -8 10 -8 16 0 19 9 8 21 -10 10 -12 36 -3
36 5 0 11 -4 14 -9 3 -5 16 -11 29 -13 18 -4 23 0 25 19 1 13 -3 23 -8 23 -6
0 -10 5 -10 11 0 5 5 7 12 3 6 -4 8 -3 5 3 -8 12 41 12 60 0 8 -5 11 -1 10 12
-1 14 -7 18 -24 15 -17 -3 -23 0 -23 13 0 30 14 43 42 38 28 -5 46 9 27 21 -8
4 -9 3 -5 -4 4 -7 3 -12 -3 -12 -20 0 -21 19 0 39 21 19 21 19 1 30 -10 6 -25
24 -32 41 -11 28 -16 30 -62 30 -107 0 -1305 20 -1511 25 l-218 5 -11 -30
c-17 -51 -90 -76 -141 -48 -37 20 -49 38 -54 82 -6 53 9 84 51 101 l32 14 12
668 c7 367 19 974 27 1347 8 374 14 680 12 680 -1 1 -13 7 -25 14 -13 7 -27
11 -30 8 -3 -4 -6 -167 -8 -364 -1 -307 -10 -720 -19 -927 -1 -33 -6 -68 -10
-77 -4 -10 -3 -18 1 -18 10 0 12 -206 2 -215 -3 -3 -3 -43 -1 -90 4 -63 1 -89
-10 -105 -10 -15 -16 -17 -19 -8 -4 11 -3 193 1 193 1 0 2 43 3 95 1 57 5 98
12 102 7 5 7 8 1 8 -7 0 -10 77 -9 218 1 119 2 460 3 757 1 297 5 548 7 558 3
9 10 15 15 11 5 -3 21 4 35 15 50 39 114 34 154 -14 12 -14 43 -16 269 -14
141 2 390 2 554 1 284 -2 298 -3 314 -22 16 -18 30 -20 174 -20 143 0 157 2
174 20 16 18 31 20 149 20 95 1 138 5 156 15 55 31 127 8 155 -52 9 -19 13
-43 9 -57 -7 -29 -50 -76 -70 -76 -7 0 -14 -10 -16 -22 -2 -13 -2 -622 0
-1354 l2 -1332 30 -12 c30 -13 60 -49 60 -74 0 -16 18 -31 27 -22 3 3 8 25 10
48 7 68 32 127 52 121 14 -4 14 -3 1 6 -12 8 -12 13 -2 23 19 19 14 55 -8 71
-17 12 -20 23 -18 60 2 25 6 43 10 41 4 -2 9 5 13 16 3 11 11 20 16 20 13 0
-10 42 -32 58 -15 10 -16 18 -9 38 7 17 7 23 0 19 -20 -12 -9 31 14 58 25 29
25 67 0 67 -21 0 -38 51 -25 72 6 10 11 25 11 33 0 8 7 15 15 15 22 0 19 49
-4 74 -22 25 -39 72 -22 62 7 -5 11 2 11 18 0 14 7 29 16 34 25 14 15 66 -13
70 -27 4 -27 7 -11 67 7 25 19 47 29 50 22 7 13 56 -13 63 -10 2 -21 16 -24
31 -3 14 -7 31 -9 38 -2 7 9 25 25 40 36 34 38 60 6 74 -20 9 -23 18 -22 55 1
31 8 49 24 65 13 12 21 28 18 36 -3 8 -6 17 -6 19 0 3 -11 9 -25 14 -23 9 -25
14 -20 51 3 26 13 48 25 56 28 20 26 61 -3 74 -19 9 -23 17 -21 51 1 27 8 44
23 54 31 22 29 70 -4 78 -22 6 -25 12 -25 50 0 35 4 45 24 54 35 16 39 48 9
72 -14 11 -29 20 -33 20 -18 0 3 66 26 83 33 25 33 73 0 88 -20 10 -24 17 -20
46 3 19 13 43 23 52 30 25 34 54 11 79 -12 12 -25 22 -31 22 -18 0 -5 54 19
78 12 12 22 33 22 45 0 24 -27 57 -46 57 -6 0 -8 16 -6 35 2 19 8 35 12 35 17
0 40 32 40 55 0 15 -11 33 -30 47 -28 20 -30 26 -30 85 0 66 -12 83 -59 83
-11 0 -26 8 -33 19 -10 15 -32 20 -102 26 -50 4 -111 7 -138 7 -26 -1 -50 3
-53 9 -4 5 -11 9 -16 9 -6 0 -7 -4 -4 -10 3 -5 -1 -10 -10 -10 -9 0 -13 4 -10
10 4 7 -3 7 -19 0 -19 -7 -26 -6 -26 3 0 8 -3 8 -8 2 -4 -6 -40 -10 -81 -11
-41 0 -65 3 -55 7 11 4 15 8 9 9 -22 4 -118 0 -126 -6 -5 -3 -9 0 -9 6 0 7 -6
8 -19 0 -26 -13 -34 -13 -25 2 5 7 3 8 -7 2 -20 -12 -52 -11 -66 2 -9 9 -43
11 -63 4 -3 -1 -24 -1 -47 0 -28 1 -49 -4 -59 -14 -10 -11 -21 -13 -32 -7 -9
5 -29 7 -44 6 -15 -2 -29 2 -32 10 -4 10 -13 12 -35 5 -24 -7 -31 -6 -31 6 0
11 -4 12 -19 2 -15 -9 -23 -9 -34 1 -13 10 -17 9 -26 -6 -8 -15 -13 -16 -28
-7 -11 7 -31 10 -46 9 -23 -3 -25 -1 -17 15 7 13 6 19 -5 24 -8 3 -14 0 -12
-6 1 -6 -4 -13 -10 -15 -8 -3 -13 4 -13 16 0 12 -6 21 -16 21 -8 0 -12 -4 -9
-10 3 -5 1 -10 -4 -10 -6 0 -11 5 -11 10 0 6 -5 10 -10 10 -6 0 -8 -11 -4 -25
7 -29 -12 -34 -31 -8 -11 15 -15 15 -29 4 -11 -9 -16 -10 -16 -2 0 6 -7 11
-16 11 -14 0 -15 3 -3 18 7 9 9 14 4 9 -4 -4 -19 0 -32 8 -22 15 -27 11 -25
-15 0 -3 -8 -7 -19 -7 -10 -1 -19 3 -19 8 0 6 -5 7 -10 4 -6 -4 -8 -12 -4 -18
3 -7 -6 1 -20 16 -23 25 -30 26 -27 5 2 -15 -54 0 -77 21 -30 27 -32 26 -32
-4z m-10 -39 c0 -3 -4 -8 -10 -11 -5 -3 -10 -1 -10 4 0 6 5 11 10 11 6 0 10
-2 10 -4z m220 -10 c0 -11 -19 -15 -25 -6 -3 5 1 10 9 10 9 0 16 -2 16 -4z
m-546 -62 c3 -8 2 -12 -4 -9 -6 3 -10 10 -10 16 0 14 7 11 14 -7z m-124 -84
c0 -5 -2 -10 -4 -10 -3 0 -8 5 -11 10 -3 6 -1 10 4 10 6 0 11 -4 11 -10z m-20
-50 c-18 -12 -30 -13 -30 -2 0 4 10 9 22 9 18 2 20 0 8 -7z m-85 -140 c3 -5 1
-10 -4 -10 -6 0 -11 5 -11 10 0 6 2 10 4 10 3 0 8 -4 11 -10z m-19 -45 c-9 -9
-20 -23 -24 -32 -5 -9 -14 -13 -20 -9 -20 12 8 56 35 56 22 0 23 -2 9 -15z
m-1 -55 c3 -5 1 -10 -4 -10 -6 0 -11 5 -11 10 0 6 2 10 4 10 3 0 8 -4 11 -10z
m-45 -16 c0 -14 -3 -14 -15 -4 -8 7 -15 14 -15 16 0 2 7 4 15 4 8 0 15 -7 15
-16z m24 -40 c5 -14 4 -15 -9 -4 -17 14 -19 20 -6 20 5 0 12 -7 15 -16z m-9
-24 c3 -5 -1 -10 -9 -10 -9 0 -16 5 -16 10 0 6 4 10 9 10 6 0 13 -4 16 -10z
m33 -63 c15 6 15 5 3 -11 -11 -13 -16 -14 -22 -4 -5 7 -8 18 -8 23 0 6 3 5 5
-2 3 -7 13 -9 22 -6z m-44 -34 c-5 -5 -12 -12 -16 -18 -4 -6 -8 -2 -8 8 0 9 7
17 17 17 9 0 12 -3 7 -7z m-19 -353 c3 -5 1 -10 -4 -10 -6 0 -11 5 -11 10 0 6
2 10 4 10 3 0 8 -4 11 -10z m42 -416 c-3 -3 -12 -4 -19 -1 -8 3 -5 6 6 6 11 1
17 -2 13 -5z m-12 -414 c3 -5 1 -10 -4 -10 -6 0 -11 5 -11 10 0 6 2 10 4 10 3
0 8 -4 11 -10z m15 -155 c0 -8 -6 -12 -14 -9 -8 3 -12 12 -9 20 6 17 23 9 23
-11z m-70 -5 c0 -11 -4 -20 -9 -20 -5 0 -7 9 -4 20 3 11 7 20 9 20 2 0 4 -9 4
-20z m80 -65 c0 -1 -12 -2 -26 -2 -17 0 -22 2 -13 7 10 7 39 3 39 -5z m-70
-89 c0 -2 -7 -6 -15 -10 -8 -3 -15 -1 -15 4 0 6 7 10 15 10 8 0 15 -2 15 -4z
m-202 -196 c-2 -6 -8 -6 -18 0 -13 9 -13 11 0 20 15 10 25 0 18 -20z m-16 -78
c3 -10 -1 -23 -9 -31 -12 -11 -13 -8 -9 16 7 41 11 45 18 15z m-32 -2 c0 -5
-2 -10 -4 -10 -3 0 -8 5 -11 10 -3 6 -1 10 4 10 6 0 11 -4 11 -10z m110 -179
c0 -5 -7 -12 -16 -15 -14 -5 -15 -4 -4 9 14 17 20 19 20 6z m-38 -53 c-7 -7
-12 -8 -12 -2 0 14 12 26 19 19 2 -3 -1 -11 -7 -17z m-32 -30 c0 -20 -18 -43
-27 -35 -4 5 -1 12 7 17 10 7 11 10 3 10 -7 0 -13 5 -13 10 0 6 7 10 15 10 8
0 15 -6 15 -12z m40 2 c0 -5 -2 -10 -4 -10 -3 0 -8 5 -11 10 -3 6 -1 10 4 10
6 0 11 -4 11 -10z m-10 -30 c0 -5 -5 -10 -11 -10 -5 0 -7 5 -4 10 3 6 8 10 11
10 2 0 4 -4 4 -10z m-33 -26 c-3 -3 -12 -4 -19 -1 -8 3 -5 6 6 6 11 1 17 -2
13 -5z m-130 -34 c-5 -31 -17 -37 -15 -7 1 15 6 27 10 27 4 0 7 -9 5 -20z
m2543 -595 c0 -3 -6 -15 -12 -28 -21 -37 -48 -49 -48 -22 0 8 6 15 14 15 7 0
16 9 19 20 4 17 27 30 27 15z m-138 -144 c-6 -14 -7 -14 -10 2 -2 10 -8 14
-15 10 -7 -4 -6 1 2 11 17 20 33 3 23 -23z m-42 -1 c8 -5 11 -12 8 -16 -4 -3
-14 1 -23 10 -18 17 -9 21 15 6z m-34 -38 c1 -7 0 -8 -2 -3 -3 6 -12 7 -21 4
-11 -4 -14 -3 -9 6 9 14 29 10 32 -7z m109 4 c24 1 35 -2 35 -11 0 -11 -20
-13 -40 -4 -3 1 -11 3 -19 3 -8 1 -16 7 -17 14 -1 7 0 9 2 4 3 -5 20 -8 39 -6z
m-5 -46 c0 -5 -4 -10 -10 -10 -5 0 -10 5 -10 10 0 6 5 10 10 10 6 0 10 -4 10
-10z"/>
<path d="M8163 9143 c0 -7 6 -13 14 -13 7 0 13 -5 13 -11 0 -5 4 -8 9 -5 5 3
7 15 4 25 -5 22 -40 25 -40 4z"/>
<path d="M7425 9140 c-3 -5 -1 -10 4 -10 6 0 11 5 11 10 0 6 -2 10 -4 10 -3 0
-8 -4 -11 -10z"/>
<path d="M7760 9140 c0 -5 5 -10 11 -10 5 0 7 5 4 10 -3 6 -8 10 -11 10 -2 0
-4 -4 -4 -10z"/>
<path d="M8265 9140 c4 -6 11 -8 16 -5 14 9 11 15 -7 15 -8 0 -12 -5 -9 -10z"/>
<path d="M8500 9130 c0 -5 5 -10 11 -10 5 0 7 5 4 10 -3 6 -8 10 -11 10 -2 0
-4 -4 -4 -10z"/>
<path d="M7515 9110 c-3 -5 -1 -10 4 -10 6 0 11 5 11 10 0 6 -2 10 -4 10 -3 0
-8 -4 -11 -10z"/>
<path d="M7548 9103 c7 -3 16 -2 19 1 4 3 -2 6 -13 5 -11 0 -14 -3 -6 -6z"/>
<path d="M7445 9090 c-3 -5 -1 -10 4 -10 6 0 11 5 11 10 0 6 -2 10 -4 10 -3 0
-8 -4 -11 -10z"/>
<path d="M7473 9081 c0 -11 5 -17 9 -15 11 7 10 34 -1 34 -6 0 -9 -9 -8 -19z"/>
<path d="M7603 9054 c0 -16 13 -19 21 -5 3 5 0 11 -7 14 -8 3 -14 -1 -14 -9z"/>
<path d="M7500 9040 c0 -5 5 -10 11 -10 5 0 7 -4 4 -10 -3 -5 1 -10 9 -10 22
0 20 13 -4 28 -12 7 -20 8 -20 2z"/>
<path d="M7390 9007 c0 -10 7 -20 15 -23 16 -7 21 -34 5 -34 -5 0 -7 -7 -4
-15 4 -8 10 -15 16 -15 5 0 6 6 3 13 -4 6 0 4 9 -6 15 -20 62 -15 50 4 -4 6
-11 6 -19 -1 -9 -8 -15 -8 -20 0 -3 5 -4 10 0 10 3 0 1 9 -5 20 -9 16 -8 20 7
21 11 0 6 5 -12 11 -16 6 -33 16 -37 22 -5 7 -8 4 -8 -7z"/>
<path d="M7357 9003 c-10 -9 -9 -23 1 -23 5 0 9 7 9 15 0 17 -1 18 -10 8z"/>
<path d="M7295 8990 c-3 -5 -1 -10 4 -10 6 0 11 5 11 10 0 6 -2 10 -4 10 -3 0
-8 -4 -11 -10z"/>
<path d="M7510 8990 c-13 -8 -12 -10 3 -10 9 0 17 5 17 10 0 12 -1 12 -20 0z"/>
<path d="M7727 8932 c-19 -21 -22 -64 -7 -93 17 -30 30 -22 30 17 0 27 5 37
20 41 11 3 20 12 20 19 0 8 7 14 16 14 8 0 12 5 9 10 -10 17 -71 11 -88 -8z"/>
<path d="M9672 8918 c-19 -19 -14 -38 13 -48 14 -5 25 -17 25 -27 0 -10 4 -24
9 -31 13 -21 41 13 41 49 0 51 -57 88 -88 57z"/>
<path d="M7355 8890 c-4 -6 -11 -8 -16 -5 -5 4 -9 1 -9 -4 0 -14 17 -14 25 -1
3 5 12 7 19 4 8 -3 17 -1 21 5 3 7 -2 11 -14 11 -11 0 -23 -5 -26 -10z"/>
<path d="M7351 8841 c-14 -26 -14 -32 1 -28 8 1 12 -8 10 -25 -4 -30 7 -41 28
-27 13 7 12 9 -2 9 -20 0 -25 30 -5 30 6 0 3 7 -8 16 -16 12 -17 16 -6 23 9 6
10 11 3 15 -6 4 -16 -2 -21 -13z"/>
<path d="M6951 8784 c0 -11 3 -14 6 -6 3 7 2 16 -1 19 -3 4 -6 -2 -5 -13z"/>
<path d="M7334 8743 c10 -11 37 -12 30 -2 -3 5 -12 9 -21 9 -9 0 -13 -3 -9 -7z"/>
<path d="M6954 8585 c0 -88 2 -123 3 -77 2 46 2 118 0 160 -1 42 -3 5 -3 -83z"/>
<path d="M7977 8610 c-21 -37 -24 -50 -15 -56 7 -4 10 -3 6 1 -5 5 4 28 18 52
14 25 24 46 22 48 -2 2 -16 -18 -31 -45z"/>
<path d="M8033 8618 c-34 -54 -53 -88 -48 -88 3 0 19 24 38 53 47 74 49 77 43
77 -3 0 -18 -19 -33 -42z"/>
<path d="M9411 8633 c-10 -26 -10 -27 4 -9 8 11 15 23 15 28 0 15 -7 8 -19
-19z"/>
<path d="M7310 8640 c0 -5 5 -10 11 -10 5 0 7 5 4 10 -3 6 -8 10 -11 10 -2 0
-4 -4 -4 -10z"/>
<path d="M8861 8603 c-19 -27 -25 -40 -15 -31 18 16 59 78 51 78 -2 0 -18 -21
-36 -47z"/>
<path d="M8450 8620 c-6 -11 -8 -20 -6 -20 3 0 10 9 16 20 6 11 8 20 6 20 -3
0 -10 -9 -16 -20z"/>
<path d="M9440 8620 c-6 -11 -8 -20 -6 -20 3 0 10 9 16 20 6 11 8 20 6 20 -3
0 -10 -9 -16 -20z"/>
<path d="M8410 8610 c-6 -11 -8 -20 -6 -20 3 0 10 9 16 20 6 11 8 20 6 20 -3
0 -10 -9 -16 -20z"/>
<path d="M8944 8598 c-14 -28 -15 -31 -2 -20 14 11 31 52 22 52 -2 0 -11 -15
-20 -32z"/>
<path d="M7927 8599 c7 -7 15 -10 18 -7 3 3 -2 9 -12 12 -14 6 -15 5 -6 -5z"/>
<path d="M8466 8593 c-6 -14 -5 -15 5 -6 7 7 10 15 7 18 -3 3 -9 -2 -12 -12z"/>
<path d="M8666 8593 c-6 -14 -5 -15 5 -6 7 7 10 15 7 18 -3 3 -9 -2 -12 -12z"/>
<path d="M8994 8585 c-9 -14 -15 -28 -12 -30 2 -2 12 9 22 25 21 36 13 40 -10
5z"/>
<path d="M9092 8585 c-7 -14 -8 -24 -3 -21 5 4 11 1 13 -5 2 -6 9 1 16 16 7
14 8 24 3 21 -5 -4 -11 -1 -13 5 -2 6 -9 -1 -16 -16z"/>
<path d="M9276 8593 c-6 -14 -5 -15 5 -6 7 7 10 15 7 18 -3 3 -9 -2 -12 -12z"/>
<path d="M9456 8593 c-6 -14 -5 -15 5 -6 7 7 10 15 7 18 -3 3 -9 -2 -12 -12z"/>
<path d="M8078 8588 c-7 -17 15 -19 29 -3 4 4 3 5 -4 2 -6 -4 -13 -2 -15 5 -3
8 -6 6 -10 -4z"/>
<path d="M9055 8589 c-4 -6 -5 -12 -2 -15 2 -3 7 2 10 11 7 17 1 20 -8 4z"/>
<path d="M9380 8579 c-7 -11 -10 -23 -7 -25 2 -2 9 7 15 21 14 30 7 33 -8 4z"/>
<path d="M8123 8575 c-3 -9 -3 -18 -1 -21 3 -3 8 4 11 16 6 23 -1 27 -10 5z"/>
<path d="M8420 8570 c-6 -11 -8 -20 -6 -20 3 0 10 9 16 20 6 11 8 20 6 20 -3
0 -10 -9 -16 -20z"/>
<path d="M8616 8578 c3 -5 10 -6 15 -3 13 9 11 12 -6 12 -8 0 -12 -4 -9 -9z"/>
<path d="M8685 8579 c-4 -6 -5 -12 -2 -15 2 -3 7 2 10 11 7 17 1 20 -8 4z"/>
<path d="M9023 8575 c-3 -9 -3 -18 -1 -21 3 -3 8 4 11 16 6 23 -1 27 -10 5z"/>
<path d="M9410 8570 c-6 -11 -8 -20 -6 -20 3 0 10 9 16 20 6 11 8 20 6 20 -3
0 -10 -9 -16 -20z"/>
<path d="M9295 8569 c-4 -6 -5 -12 -2 -15 2 -3 7 2 10 11 7 17 1 20 -8 4z"/>
<path d="M7307 8531 c1 -2 -2 -12 -8 -22 -6 -13 -6 -19 1 -19 5 0 10 5 10 10
0 7 6 7 20 0 14 -7 20 -7 20 0 0 5 -5 10 -11 10 -7 0 -17 6 -23 13 -6 7 -10
10 -9 8z"/>
<path d="M8220 8380 c-6 -11 -8 -20 -6 -20 3 0 10 9 16 20 6 11 8 20 6 20 -3
0 -10 -9 -16 -20z"/>
<path d="M9370 8380 c-6 -11 -8 -20 -6 -20 3 0 10 9 16 20 6 11 8 20 6 20 -3
0 -10 -9 -16 -20z"/>
<path d="M9451 8373 c-10 -26 -10 -27 4 -9 8 11 15 23 15 28 0 15 -7 8 -19
-19z"/>
<path d="M9672 8350 c0 -19 2 -27 5 -17 2 9 2 25 0 35 -3 9 -5 1 -5 -18z"/>
<path d="M8400 8350 c-6 -11 -8 -20 -6 -20 3 0 10 9 16 20 6 11 8 20 6 20 -3
0 -10 -9 -16 -20z"/>
<path d="M8830 8350 c-6 -11 -8 -20 -6 -20 3 0 10 9 16 20 6 11 8 20 6 20 -3
0 -10 -9 -16 -20z"/>
<path d="M6953 8280 c0 -47 2 -66 4 -42 2 23 2 61 0 85 -2 23 -4 4 -4 -43z"/>
<path d="M8121 8323 c-10 -26 -10 -27 4 -9 8 11 15 23 15 28 0 15 -7 8 -19
-19z"/>
<path d="M8190 8329 c-6 -11 -10 -25 -8 -30 2 -5 8 4 15 21 13 34 9 40 -7 9z"/>
<path d="M8250 8329 c-6 -11 -10 -25 -8 -30 2 -5 8 4 15 21 13 34 9 40 -7 9z"/>
<path d="M8476 8333 c-6 -14 -5 -15 5 -6 7 7 10 15 7 18 -3 3 -9 -2 -12 -12z"/>
<path d="M8564 8325 c-9 -14 -15 -27 -13 -30 3 -2 12 10 21 26 21 36 15 39 -8
4z"/>
<path d="M8595 8324 c-9 -14 -15 -27 -13 -30 2 -2 12 10 22 26 21 37 15 40 -9
4z"/>
<path d="M9340 8329 c-6 -11 -10 -25 -8 -30 2 -5 8 4 15 21 13 34 9 40 -7 9z"/>
<path d="M9402 8325 c-7 -14 -8 -24 -3 -21 5 4 11 1 13 -5 2 -6 9 1 16 16 7
14 8 24 3 21 -5 -4 -11 -1 -13 5 -2 6 -9 -1 -16 -16z"/>
<path d="M8655 8329 c-4 -6 -5 -12 -2 -15 2 -3 7 2 10 11 7 17 1 20 -8 4z"/>
<path d="M8916 8323 c-6 -14 -5 -15 5 -6 7 7 10 15 7 18 -3 3 -9 -2 -12 -12z"/>
<path d="M9135 8329 c-4 -6 -5 -12 -2 -15 2 -3 7 2 10 11 7 17 1 20 -8 4z"/>
<path d="M9365 8329 c-4 -6 -5 -12 -2 -15 2 -3 7 2 10 11 7 17 1 20 -8 4z"/>
<path d="M8623 8315 c-3 -9 -3 -18 -1 -21 3 -3 8 4 11 16 6 23 -1 27 -10 5z"/>
<path d="M8733 8315 c-3 -9 -3 -18 -1 -21 3 -3 8 4 11 16 6 23 -1 27 -10 5z"/>
<path d="M8763 8315 c-3 -9 -3 -18 -1 -21 3 -3 8 4 11 16 6 23 -1 27 -10 5z"/>
<path d="M9023 8315 c-3 -9 -3 -18 -1 -21 3 -3 8 4 11 16 6 23 -1 27 -10 5z"/>
<path d="M8031 8304 c0 -11 3 -14 6 -6 3 7 2 16 -1 19 -3 4 -6 -2 -5 -13z"/>
<path d="M9055 8311 c-3 -5 -2 -12 3 -15 5 -3 9 1 9 9 0 17 -3 19 -12 6z"/>
<path d="M9211 8304 c0 -11 3 -14 6 -6 3 7 2 16 -1 19 -3 4 -6 -2 -5 -13z"/>
<path d="M6952 8160 c0 -19 2 -27 5 -17 2 9 2 25 0 35 -3 9 -5 1 -5 -18z"/>
<path d="M8650 8110 c-6 -11 -8 -20 -6 -20 3 0 10 9 16 20 6 11 8 20 6 20 -3
0 -10 -9 -16 -20z"/>
<path d="M8686 8113 c-6 -14 -5 -15 5 -6 7 7 10 15 7 18 -3 3 -9 -2 -12 -12z"/>
<path d="M9360 8090 c-6 -11 -8 -20 -6 -20 3 0 10 9 16 20 6 11 8 20 6 20 -3
0 -10 -9 -16 -20z"/>
<path d="M8199 8063 c-13 -16 -12 -17 4 -4 9 7 17 15 17 17 0 8 -8 3 -21 -13z"/>
<path d="M8486 8063 c-6 -14 -5 -15 5 -6 7 7 10 15 7 18 -3 3 -9 -2 -12 -12z"/>
<path d="M8846 8063 c-6 -14 -5 -15 5 -6 7 7 10 15 7 18 -3 3 -9 -2 -12 -12z"/>
<path d="M9067 8065 c-9 -26 -9 -36 0 -32 5 1 7 8 5 15 -2 7 2 11 9 10 6 -2
14 4 16 12 4 12 3 12 -5 1 -8 -11 -10 -11 -14 0 -3 10 -7 8 -11 -6z"/>
<path d="M9137 8047 l-17 -32 20 24 c17 20 26 41 18 41 -2 0 -11 -15 -21 -33z"/>
<path d="M9286 8063 c-6 -14 -5 -15 5 -6 7 7 10 15 7 18 -3 3 -9 -2 -12 -12z"/>
<path d="M6951 8054 c0 -11 3 -14 6 -6 3 7 2 16 -1 19 -3 4 -6 -2 -5 -13z"/>
<path d="M8145 8059 c-4 -6 -5 -12 -2 -15 2 -3 7 2 10 11 7 17 1 20 -8 4z"/>
<path d="M8355 8059 c-4 -6 -5 -12 -2 -15 2 -3 7 2 10 11 7 17 1 20 -8 4z"/>
<path d="M8645 8044 c-9 -15 -12 -23 -6 -20 11 7 35 46 28 46 -3 0 -12 -12
-22 -26z"/>
<path d="M8715 8059 c-4 -6 -5 -12 -2 -15 2 -3 7 2 10 11 7 17 1 20 -8 4z"/>
<path d="M8795 8059 c-4 -6 -5 -12 -2 -15 2 -3 7 2 10 11 7 17 1 20 -8 4z"/>
<path d="M9025 8059 c-4 -6 -5 -12 -2 -15 2 -3 7 2 10 11 7 17 1 20 -8 4z"/>
<path d="M9230 8051 c-7 -15 -7 -22 2 -27 7 -4 10 -4 6 1 -4 4 -3 16 3 26 5
11 7 19 5 19 -3 0 -10 -9 -16 -19z"/>
<path d="M8220 8040 c-6 -11 -8 -20 -6 -20 3 0 10 9 16 20 6 11 8 20 6 20 -3
0 -10 -9 -16 -20z"/>
<path d="M8613 8045 c-3 -9 -3 -18 -1 -21 3 -3 8 4 11 16 6 23 -1 27 -10 5z"/>
<path d="M9337 8053 c-4 -3 -7 -13 -7 -22 1 -13 3 -13 11 2 11 19 8 33 -4 20z"/>
<path d="M8321 8034 c0 -11 3 -14 6 -6 3 7 2 16 -1 19 -3 4 -6 -2 -5 -13z"/>
<path d="M8865 8039 c-4 -6 -5 -12 -2 -15 2 -3 7 2 10 11 7 17 1 20 -8 4z"/>
<path d="M9105 8039 c-4 -6 -5 -12 -2 -15 2 -3 7 2 10 11 7 17 1 20 -8 4z"/>
<path d="M9305 8039 c-4 -6 -5 -12 -2 -15 2 -3 7 2 10 11 7 17 1 20 -8 4z"/>
<path d="M9671 8004 c0 -11 3 -14 6 -6 3 7 2 16 -1 19 -3 4 -6 -2 -5 -13z"/>
<path d="M8118 7873 c7 -3 16 -2 19 1 4 3 -2 6 -13 5 -11 0 -14 -3 -6 -6z"/>
<path d="M8132 7843 c-24 -35 -44 -73 -38 -73 2 0 18 23 35 50 33 54 35 68 3
23z"/>
<path d="M8271 7843 c-10 -26 -10 -27 4 -9 8 11 15 23 15 28 0 15 -7 8 -19
-19z"/>
<path d="M8580 7850 c-6 -11 -8 -20 -6 -20 3 0 10 9 16 20 6 11 8 20 6 20 -3
0 -10 -9 -16 -20z"/>
<path d="M8160 7810 c-6 -11 -8 -20 -6 -20 3 0 10 9 16 20 6 11 8 20 6 20 -3
0 -10 -9 -16 -20z"/>
<path d="M9375 7800 c-9 -16 -13 -30 -11 -30 3 0 12 14 21 30 9 17 13 30 11
30 -3 0 -12 -13 -21 -30z"/>
<path d="M8301 7804 c0 -11 3 -14 6 -6 3 7 2 16 -1 19 -3 4 -6 -2 -5 -13z"/>
<path d="M8782 7795 c-7 -14 -8 -24 -3 -21 5 4 11 1 13 -5 2 -6 9 1 16 16 7
14 8 24 3 21 -5 -4 -11 -1 -13 5 -2 6 -9 -1 -16 -16z"/>
<path d="M8916 7803 c-6 -14 -5 -15 5 -6 7 7 10 15 7 18 -3 3 -9 -2 -12 -12z"/>
<path d="M9316 7803 c-6 -14 -5 -15 5 -6 7 7 10 15 7 18 -3 3 -9 -2 -12 -12z"/>
<path d="M8240 7789 c-7 -11 -10 -23 -7 -25 2 -2 9 7 15 21 14 30 7 33 -8 4z"/>
<path d="M8408 7798 c-7 -17 15 -19 29 -3 4 4 3 5 -4 2 -6 -4 -13 -2 -15 5 -3
8 -6 6 -10 -4z"/>
<path d="M8460 7790 c-6 -11 -8 -20 -6 -20 3 0 10 9 16 20 6 11 8 20 6 20 -3
0 -10 -9 -16 -20z"/>
<path d="M8616 7793 c-6 -14 -5 -15 5 -6 7 7 10 15 7 18 -3 3 -9 -2 -12 -12z"/>
<path d="M9120 7790 c-6 -11 -8 -20 -6 -20 3 0 10 9 16 20 6 11 8 20 6 20 -3
0 -10 -9 -16 -20z"/>
<path d="M8543 7785 c-3 -9 -3 -18 -1 -21 3 -3 8 4 11 16 6 23 -1 27 -10 5z"/>
<path d="M8575 7789 c-4 -6 -5 -12 -2 -15 2 -3 7 2 10 11 7 17 1 20 -8 4z"/>
<path d="M9193 7785 c-3 -9 -3 -18 -1 -21 3 -3 8 4 11 16 6 23 -1 27 -10 5z"/>
<path d="M8171 7774 c0 -11 3 -14 6 -6 3 7 2 16 -1 19 -3 4 -6 -2 -5 -13z"/>
<path d="M7345 7730 c-3 -5 -1 -10 4 -10 6 0 11 5 11 10 0 6 -2 10 -4 10 -3 0
-8 -4 -11 -10z"/>
<path d="M6951 7504 c0 -11 3 -14 6 -6 3 7 2 16 -1 19 -3 4 -6 -2 -5 -13z"/>
<path d="M6940 7331 c0 -6 4 -13 10 -16 6 -3 7 1 4 9 -7 18 -14 21 -14 7z"/>
<path d="M6942 7220 c0 -14 2 -19 5 -12 2 6 2 18 0 25 -3 6 -5 1 -5 -13z"/>
<path d="M7290 7236 c0 -2 7 -9 15 -16 9 -7 15 -8 15 -2 0 5 -7 12 -15 16 -8
3 -15 4 -15 2z"/>
<path d="M7280 7169 c0 -5 4 -8 9 -5 5 4 12 0 14 -6 3 -8 6 -6 6 5 1 9 -6 17
-14 17 -8 0 -15 -5 -15 -11z"/>
<path d="M7124 7115 c-10 -8 -14 -14 -9 -15 15 0 40 18 34 24 -3 3 -14 -1 -25
-9z"/>
<path d="M7256 7118 c3 -4 9 -8 15 -8 5 0 9 4 9 8 0 5 -7 9 -15 9 -8 0 -12 -4
-9 -9z"/>
<path d="M7140 7096 c0 -2 9 -6 20 -9 11 -3 20 -1 20 4 0 5 -9 9 -20 9 -11 0
-20 -2 -20 -4z"/>
<path d="M7130 7060 c-9 -6 -10 -10 -3 -10 6 0 15 5 18 10 8 12 4 12 -15 0z"/>
<path d="M7175 7060 c3 -5 8 -10 11 -10 2 0 4 5 4 10 0 6 -5 10 -11 10 -5 0
-7 -4 -4 -10z"/>
<path d="M7104 7032 c-9 -6 -11 -53 -4 -72 1 -3 2 -13 1 -22 -1 -10 3 -18 9
-18 7 0 10 6 7 13 -8 22 13 47 41 48 15 0 21 3 14 6 -6 2 -10 8 -8 11 2 4 -6
8 -19 8 -18 1 -22 -2 -18 -15 3 -12 1 -11 -11 3 -12 15 -13 22 -4 27 7 5 10
10 7 13 -2 3 -9 2 -15 -2z"/>
<path d="M7170 7036 c0 -2 9 -6 20 -9 11 -3 18 -1 14 4 -5 9 -34 13 -34 5z"/>
<path d="M7050 6920 c-9 -6 -10 -10 -3 -10 6 0 15 5 18 10 8 12 4 12 -15 0z"/>
<path d="M6974 6870 c0 -11 1 -20 2 -20 1 0 9 3 18 6 13 5 13 8 1 20 -18 18
-21 18 -21 -6z"/>
<path d="M7020 6800 c19 -13 30 -13 30 0 0 6 -10 10 -22 10 -19 0 -20 -2 -8
-10z"/>
<path d="M6979 6678 c-11 -8 -11 -9 3 -5 9 3 18 1 20 -5 2 -6 11 -9 18 -6 12
4 10 7 -6 16 -14 7 -25 7 -35 0z"/>
<path d="M7744 6515 c0 -88 2 -123 3 -77 2 46 2 118 0 160 -1 42 -3 5 -3 -83z"/>
<path d="M7060 6554 c0 -8 5 -12 10 -9 6 4 8 11 5 16 -9 14 -15 11 -15 -7z"/>
<path d="M6998 6433 c-24 -6 -23 -19 2 -26 12 -3 18 -1 14 5 -4 6 0 14 7 19
15 9 6 10 -23 2z"/>
<path d="M7733 6155 c0 -44 2 -61 4 -37 2 23 2 59 0 80 -2 20 -4 1 -4 -43z"/>
<path d="M7666 6031 c-44 -48 -6 -131 53 -116 54 14 72 55 24 55 -40 0 -51 11
-55 49 l-3 33 -19 -21z"/>
<path d="M7730 6020 c0 -13 7 -20 20 -20 11 0 20 3 20 8 0 4 -9 13 -20 20 -18
11 -20 10 -20 -8z"/>
<path d="M7810 6012 c0 -17 20 -19 265 -21 132 -1 483 -6 780 -11 696 -12 745
-12 745 0 0 6 -63 10 -167 10 -93 0 -334 4 -538 9 -746 19 -1085 23 -1085 13z"/>
<path d="M9720 5980 l0 -40 -40 0 c-22 0 -40 -4 -40 -8 0 -19 38 -42 68 -42
25 0 35 6 47 30 20 38 19 63 -3 83 -27 25 -32 21 -32 -23z"/>
<path d="M9650 5980 c0 -5 7 -10 15 -10 8 0 15 5 15 10 0 6 -7 10 -15 10 -8 0
-15 -4 -15 -10z"/>
<path d="M9577 5666 c-3 -8 -2 -18 3 -21 13 -8 24 15 12 27 -6 6 -11 4 -15 -6z"/>
<path d="M9545 5601 c3 -5 1 -12 -5 -16 -6 -4 -8 -11 -4 -16 9 -15 34 10 27
27 -3 8 -9 14 -15 14 -5 0 -7 -4 -3 -9z"/>
<path d="M9440 5504 l-25 -13 27 -1 c15 0 29 4 33 9 10 17 -10 20 -35 5z"/>
<path d="M9508 5498 c6 -6 18 -8 28 -6 14 3 12 5 -9 10 -19 3 -25 2 -19 -4z"/>
<path d="M9588 5493 c12 -2 32 -2 45 0 12 2 2 4 -23 4 -25 0 -35 -2 -22 -4z"/>
<path d="M9673 5493 c9 -2 23 -2 30 0 6 3 -1 5 -18 5 -16 0 -22 -2 -12 -5z"/>
<path d="M9728 5493 c6 -2 18 -2 25 0 6 3 1 5 -13 5 -14 0 -19 -2 -12 -5z"/>
<path d="M9833 5493 c9 -2 25 -2 35 0 9 3 1 5 -18 5 -19 0 -27 -2 -17 -5z"/>
<path d="M6217 5126 c-4 -10 -5 -21 -2 -24 9 -9 17 6 13 25 -3 17 -4 17 -11
-1z"/>
<path d="M9053 5254 c-8 -21 13 -42 28 -27 13 13 5 43 -11 43 -6 0 -13 -7 -17
-16z"/>
<path d="M9134 5256 c-6 -17 2 -36 17 -36 12 0 12 37 -1 45 -6 3 -13 -1 -16
-9z"/>
<path d="M9630 5270 c0 -5 7 -10 15 -10 8 0 15 5 15 10 0 6 -7 10 -15 10 -8 0
-15 -4 -15 -10z"/>
<path d="M9630 5232 c0 -14 11 -21 26 -15 8 3 11 9 8 14 -7 11 -34 12 -34 1z"/>
<path d="M9710 5220 c0 -5 5 -10 10 -10 6 0 10 5 10 10 0 6 -4 10 -10 10 -5 0
-10 -4 -10 -10z"/>
<path d="M8737 5264 c-14 -14 -7 -35 11 -32 9 2 17 10 17 17 0 16 -18 25 -28
15z"/>
<path d="M10110 5231 c0 -12 6 -21 16 -21 9 0 14 7 12 17 -5 25 -28 28 -28 4z"/>
<path d="M10184 5239 c-8 -14 11 -33 25 -25 11 7 4 36 -9 36 -5 0 -12 -5 -16
-11z"/>
<path d="M9215 5260 c-3 -5 1 -10 10 -10 9 0 13 5 10 10 -3 6 -8 10 -10 10 -2
0 -7 -4 -10 -10z"/>
<path d="M8868 4923 c12 -2 32 -2 45 0 12 2 2 4 -23 4 -25 0 -35 -2 -22 -4z"/>
<path d="M8772 4899 c-151 -75 -175 -295 -46 -409 70 -61 153 -81 239 -55 127
37 202 161 175 291 -19 88 -98 174 -175 188 l-30 6 30 -11 c181 -70 229 -302
87 -419 -130 -108 -331 -50 -387 111 -41 116 14 241 129 295 28 13 44 24 36
24 -8 0 -34 -10 -58 -21z"/>
<path d="M10042 4743 l3 -158 183 -3 182 -2 0 110 0 110 -64 0 c-100 0 -117 6
-151 56 l-30 44 -63 0 -63 0 3 -157z m223 7 c31 -33 27 -54 -5 -25 -20 18 -20
18 -20 -38 0 -32 -4 -57 -10 -57 -5 0 -10 25 -10 57 0 56 0 56 -20 38 -32 -29
-36 -8 -5 25 16 17 32 30 35 30 3 0 19 -13 35 -30z"/>
<path d="M10230 4840 c0 -6 31 -10 74 -10 41 0 81 -3 90 -6 11 -4 16 -1 16 10
0 13 -14 16 -90 16 -53 0 -90 -4 -90 -10z"/>
<path d="M10202 4403 c5 -25 28 -28 28 -4 0 12 -6 21 -16 21 -9 0 -14 -7 -12
-17z"/>
<path d="M10270 4400 c0 -11 7 -20 15 -20 8 0 15 9 15 20 0 11 -7 20 -15 20
-8 0 -15 -9 -15 -20z"/>
<path d="M7750 4125 c0 -9 5 -15 11 -13 6 2 11 8 11 13 0 5 -5 11 -11 13 -6 2
-11 -4 -11 -13z"/>
<path d="M7830 4091 c0 -12 6 -21 16 -21 9 0 14 7 12 17 -5 25 -28 28 -28 4z"/>
<path d="M7750 4085 c0 -8 7 -15 15 -15 8 0 15 4 15 9 0 5 -7 11 -15 15 -9 3
-15 0 -15 -9z"/>
<path d="M7905 4070 c4 -6 11 -8 16 -5 14 9 11 15 -7 15 -8 0 -12 -5 -9 -10z"/>
<path d="M8014 4096 c-4 -10 -2 -22 4 -28 8 -8 13 -7 18 6 4 10 2 22 -4 28 -8
8 -13 7 -18 -6z"/>
<path d="M8666 4123 c-3 -3 -6 -22 -6 -40 0 -30 3 -34 23 -31 30 4 37 52 9 67
-11 6 -22 7 -26 4z"/>
<path d="M8753 4084 c-8 -21 13 -42 28 -27 13 13 5 43 -11 43 -6 0 -13 -7 -17
-16z"/>
<path d="M7648 4103 c7 -3 16 -2 19 1 4 3 -2 6 -13 5 -11 0 -14 -3 -6 -6z"/>
<path d="M7648 4073 c7 -3 16 -2 19 1 4 3 -2 6 -13 5 -11 0 -14 -3 -6 -6z"/>
<path d="M9940 4095 c-13 -16 -10 -47 5 -52 19 -6 46 21 40 39 -9 23 -31 29
-45 13z"/>
<path d="M10033 4088 c2 -7 10 -13 17 -13 7 0 15 6 18 13 2 7 -5 12 -18 12
-13 0 -20 -5 -17 -12z"/>
<path d="M10240 4049 c0 -24 23 -21 28 4 2 10 -3 17 -12 17 -10 0 -16 -9 -16
-21z"/>
<path d="M10312 4053 c5 -25 28 -28 28 -4 0 12 -6 21 -16 21 -9 0 -14 -7 -12
-17z"/>
<path d="M10398 4063 c7 -3 16 -2 19 1 4 3 -2 6 -13 5 -11 0 -14 -3 -6 -6z"/>
<path d="M10398 4033 c7 -3 16 -2 19 1 4 3 -2 6 -13 5 -11 0 -14 -3 -6 -6z"/>
<path d="M17083 9901 c-45 -31 -84 -58 -86 -61 -3 -3 87 -4 200 -2 113 1 203
5 200 8 -3 3 -88 5 -189 4 l-183 -1 73 50 c46 32 85 51 109 54 l38 4 -40 0
c-33 1 -55 -9 -122 -56z"/>
<path d="M3547 9912 c-25 -27 -77 -151 -98 -231 -26 -100 -25 -234 1 -326 11
-38 20 -97 20 -131 0 -53 4 -66 31 -100 41 -52 56 -59 69 -35 12 24 14 827 1
835 -4 3 -15 -2 -24 -12z"/>
<path d="M17280 9926 c0 -2 14 -14 30 -26 17 -12 30 -19 30 -16 0 2 -13 14
-30 26 -16 12 -30 19 -30 16z"/>
<path d="M1744 9745 c-13 -35 -6 -59 19 -63 14 -2 17 4 16 40 -1 36 -2 39 -9
18 -7 -25 -7 -25 -11 5 l-4 30 -11 -30z"/>
<path d="M17223 9493 c15 -2 39 -2 55 0 15 2 2 4 -28 4 -30 0 -43 -2 -27 -4z"/>
<path d="M17170 9480 c25 -8 137 -13 129 -6 -2 2 -38 6 -79 8 -42 3 -64 2 -50
-2z"/>
<path d="M17318 9483 c6 -2 18 -2 25 0 6 3 1 5 -13 5 -14 0 -19 -2 -12 -5z"/>
<path d="M17388 9465 c78 -34 131 -94 158 -178 7 -23 13 -33 13 -22 1 31 -43
117 -75 146 -37 35 -95 69 -114 69 -8 -1 0 -7 18 -15z"/>
<path d="M1810 9450 c0 -5 5 -10 10 -10 6 0 10 5 10 10 0 6 -4 10 -10 10 -5 0
-10 -4 -10 -10z"/>
<path d="M17375 9443 c17 -8 42 -27 58 -41 15 -14 27 -21 27 -15 0 12 -87 73
-104 73 -6 -1 3 -8 19 -17z"/>
<path d="M17004 9422 c-56 -41 -134 -153 -134 -193 0 -7 14 15 30 48 33 65 53
90 115 141 49 39 42 42 -11 4z"/>
<path d="M17044 9416 c-55 -37 -97 -87 -120 -141 -23 -55 -16 -55 11 1 30 61
93 126 149 154 23 11 34 20 26 20 -8 0 -38 -15 -66 -34z"/>
<path d="M17487 9335 c9 -19 18 -33 21 -31 4 5 -26 66 -33 66 -3 0 3 -16 12
-35z"/>
<path d="M17328 9313 c7 -3 16 -2 19 1 4 3 -2 6 -13 5 -11 0 -14 -3 -6 -6z"/>
<path d="M17143 9290 c-46 -27 -41 -34 5 -8 46 27 48 28 36 28 -5 0 -24 -9
-41 -20z"/>
<path d="M17370 9285 c0 -14 2 -25 4 -25 2 0 6 11 8 25 3 14 1 25 -3 25 -5 0
-9 -11 -9 -25z"/>
<path d="M17181 9275 c-48 -28 -63 -44 -86 -90 -9 -16 -10 -22 -3 -11 56 82
116 120 183 114 24 -1 41 0 38 5 -10 17 -89 6 -132 -18z"/>
<path d="M18180 9196 c0 -58 2 -106 4 -106 8 0 76 42 76 46 0 3 -13 -2 -30
-11 -16 -8 -32 -15 -35 -15 -3 0 -5 36 -4 80 1 44 4 80 7 80 3 0 16 -10 29
-22 13 -12 25 -19 28 -16 3 3 -12 20 -35 38 l-40 32 0 -106z"/>
<path d="M16160 9242 c-33 -32 -50 -56 -50 -73 0 -20 4 -17 19 16 16 34 67 85
86 85 4 0 5 -41 4 -90 -1 -50 1 -93 5 -97 3 -3 6 42 6 100 0 65 -4 107 -10
107 -6 0 -33 -22 -60 -48z"/>
<path d="M17522 9235 c0 -16 2 -22 5 -12 2 9 2 23 0 30 -3 6 -5 -1 -5 -18z"/>
<path d="M17061 9217 c-30 -48 -26 -58 4 -12 15 20 24 39 22 42 -3 2 -14 -11
-26 -30z"/>
<path d="M17362 9230 c0 -14 2 -19 5 -12 2 6 2 18 0 25 -3 6 -5 1 -5 -13z"/>
<path d="M17316 9204 c-4 -20 -5 -38 -3 -40 3 -3 8 11 11 32 4 20 5 38 3 40
-3 3 -8 -11 -11 -32z"/>
<path d="M16862 9190 c0 -14 2 -19 5 -12 2 6 2 18 0 25 -3 6 -5 1 -5 -13z"/>
<path d="M17351 9184 c0 -11 3 -14 6 -6 3 7 2 16 -1 19 -3 4 -6 -2 -5 -13z"/>
<path d="M17521 9184 c0 -11 3 -14 6 -6 3 7 2 16 -1 19 -3 4 -6 -2 -5 -13z"/>
<path d="M17552 9154 c-4 -100 -82 -184 -171 -184 -36 0 -44 4 -62 33 -17 27
-20 28 -14 7 11 -40 34 -52 91 -48 32 3 63 13 84 28 43 30 83 116 77 167 l-4
38 -1 -41z"/>
<path d="M16889 9158 c0 -13 -2 -30 -4 -39 -1 -9 0 -32 5 -50 6 -27 7 -19 8
39 1 39 -1 72 -3 72 -3 0 -5 -10 -6 -22z"/>
<path d="M17026 9138 c-10 -38 -7 -87 8 -122 16 -37 23 -44 68 -56 37 -11 32
-4 -14 18 -46 24 -60 55 -54 125 4 61 2 71 -8 35z"/>
<path d="M17335 9100 c-4 -34 -5 -63 -2 -66 2 -3 7 23 11 57 4 33 5 63 3 66
-3 2 -8 -23 -12 -57z"/>
<path d="M17521 9144 c0 -11 3 -14 6 -6 3 7 2 16 -1 19 -3 4 -6 -2 -5 -13z"/>
<path d="M16150 9136 c0 -3 9 -10 20 -16 11 -6 20 -8 20 -6 0 3 -9 10 -20 16
-11 6 -20 8 -20 6z"/>
<path d="M16853 9095 c0 -27 2 -38 4 -22 2 15 2 37 0 50 -2 12 -4 0 -4 -28z"/>
<path d="M17297 9119 c-4 -14 -26 -48 -49 -75 -32 -38 -34 -42 -9 -19 40 37
74 91 69 107 -3 7 -8 1 -11 -13z"/>
<path d="M17062 9090 c0 -14 2 -19 5 -12 2 6 2 18 0 25 -3 6 -5 1 -5 -13z"/>
<path d="M17480 9049 c-13 -21 -27 -39 -30 -39 -3 0 -15 -7 -26 -15 -17 -14
-16 -15 13 -1 27 14 81 81 72 91 -2 1 -15 -15 -29 -36z"/>
<path d="M16862 9020 c0 -14 2 -19 5 -12 2 6 2 18 0 25 -3 6 -5 1 -5 -13z"/>
<path d="M17097 9009 c12 -12 24 -21 27 -18 2 2 -8 13 -22 23 l-27 19 22 -24z"/>
<path d="M17250 9014 c-17 -19 -47 -36 -85 -45 -24 -6 -26 -7 -7 -8 29 -1 98
33 105 54 8 19 3 19 -13 -1z"/>
<path d="M17368 8988 c5 -5 16 -8 23 -6 8 3 3 7 -10 11 -17 4 -21 3 -13 -5z"/>
<path d="M16870 8985 c0 -5 5 -17 10 -25 5 -8 10 -10 10 -5 0 6 -5 17 -10 25
-5 8 -10 11 -10 5z"/>
<path d="M16910 8984 c0 -6 13 -30 28 -55 31 -48 82 -92 122 -103 14 -5 0 7
-30 26 -39 24 -64 48 -87 88 -18 30 -33 50 -33 44z"/>
<path d="M17148 8983 c6 -2 18 -2 25 0 6 3 1 5 -13 5 -14 0 -19 -2 -12 -5z"/>
<path d="M16904 8915 c14 -29 40 -57 81 -85 11 -7 4 2 -15 21 -19 19 -45 48
-58 64 l-23 30 15 -30z"/>
<path d="M15228 8808 l-3 -73 -1140 0 -1140 0 0 -70 0 -70 190 -5 190 -5 71
-48 c40 -26 84 -64 100 -84 37 -49 79 -154 98 -249 27 -131 35 -165 61 -264
52 -199 60 -288 60 -650 -1 -371 -1 -375 -91 -1175 -71 -636 -81 -746 -96
-1072 -13 -293 -3 -583 27 -791 30 -212 131 -551 163 -545 7 2 9 -4 5 -14 -5
-13 -2 -15 11 -10 9 4 15 3 11 -2 -3 -6 6 -8 21 -5 16 3 31 0 35 -8 7 -10 9
-8 9 5 0 14 5 17 23 13 12 -3 16 -3 9 0 -6 3 -10 10 -6 15 3 5 1 9 -3 9 -5 0
-9 8 -10 17 -1 10 -11 39 -22 66 -56 130 -112 381 -136 605 -17 162 -20 580
-5 804 13 184 58 625 105 1028 85 721 101 1117 59 1485 -37 333 -138 590 -307
788 -27 32 -47 60 -45 63 8 7 198 -32 262 -55 146 -51 263 -192 315 -379 50
-182 49 -367 -5 -897 -48 -473 -51 -726 -9 -943 55 -288 193 -524 360 -617
143 -80 348 -123 640 -133 l190 -7 3 -72 c2 -40 4 -73 6 -73 3 0 229 126 335
187 l43 25 -183 109 c-101 60 -187 109 -191 109 -5 0 -8 -37 -8 -82 l0 -81
-162 7 c-371 15 -599 80 -703 199 -93 107 -165 266 -207 460 -20 90 -22 131
-22 347 0 213 5 283 34 540 30 262 34 325 35 565 0 251 -2 276 -23 360 -47
180 -159 358 -267 425 -19 12 -35 26 -35 31 0 5 272 9 675 9 l675 0 0 -80 c0
-44 2 -80 5 -80 3 0 26 13 52 28 27 16 91 52 143 82 173 96 182 102 173 110
-6 5 -308 185 -365 217 -4 2 -8 -29 -10 -69z"/>
<path d="M17330 8830 c-13 -8 -12 -10 4 -10 31 0 11 -12 -46 -26 -48 -13 -49
-14 -11 -9 63 8 94 22 87 40 -7 17 -13 18 -34 5z"/>
<path d="M17040 8803 c19 -8 53 -17 75 -19 l40 -3 -40 8 c-22 5 -53 14 -68 20
-42 16 -47 12 -7 -6z"/>
<path d="M17173 8773 c9 -2 23 -2 30 0 6 3 -1 5 -18 5 -16 0 -22 -2 -12 -5z"/>
<path d="M2250 7706 c0 -8 4 -17 9 -20 5 -4 7 3 4 14 -6 23 -13 26 -13 6z"/>
<path d="M16474 7385 c-362 -253 -360 -251 -354 -257 3 -3 70 -60 150 -128 80
-69 182 -157 227 -197 l83 -72 322 216 c178 118 328 221 335 227 8 8 -41 58
-196 198 -114 103 -219 197 -233 208 l-26 20 -308 -215z"/>
<path d="M17659 7534 c-41 -37 -90 -81 -109 -98 -19 -17 -90 -80 -157 -140
-68 -60 -123 -112 -123 -115 1 -3 152 -106 336 -228 l336 -222 182 159 c99 87
203 178 230 202 l48 43 -78 54 c-44 30 -193 135 -332 233 -139 98 -254 178
-256 178 -1 0 -36 -30 -77 -66z"/>
<path d="M6661 6804 c0 -11 3 -14 6 -6 3 7 2 16 -1 19 -3 4 -6 -2 -5 -13z"/>
<path d="M16350 6529 c-124 -104 -226 -194 -228 -199 -2 -5 6 -13 16 -19 17
-9 359 -248 570 -400 65 -46 76 -51 92 -39 10 7 98 85 195 173 97 88 195 176
217 195 l40 36 -129 86 c-325 217 -528 351 -538 354 -5 1 -111 -83 -235 -187z"/>
<path d="M17870 6675 c-36 -24 -186 -123 -335 -220 l-269 -177 50 -47 c122
-111 399 -357 410 -364 9 -5 91 47 236 149 123 86 272 191 332 233 l108 75
-28 25 c-35 29 -282 242 -298 256 -49 44 -134 115 -137 114 -2 0 -33 -20 -69
-44z"/>
<path d="M17189 6113 c-41 -36 -108 -96 -149 -133 -41 -37 -113 -102 -160
-144 -47 -41 -89 -76 -94 -76 -4 0 -48 29 -97 65 -48 36 -91 65 -94 65 -3 0
-5 -33 -5 -73 l0 -74 48 -30 c26 -17 177 -115 337 -218 196 -127 293 -185 302
-179 7 5 155 101 330 214 175 112 321 209 325 215 9 12 11 145 2 145 -3 0 -47
-29 -99 -65 -51 -36 -96 -65 -100 -65 -5 0 -368 321 -385 340 -3 4 -23 23 -46
43 l-41 37 -74 -67z"/>
<path d="M1138 5913 c7 -3 16 -2 19 1 4 3 -2 6 -13 5 -11 0 -14 -3 -6 -6z"/>
<path d="M1735 5485 c-16 -16 -25 -32 -21 -41 3 -9 6 -27 6 -40 0 -14 4 -23 9
-20 5 4 11 1 13 -5 6 -17 42 8 62 43 16 25 16 30 2 50 -9 12 -16 18 -16 13 0
-6 -7 -2 -14 7 -12 17 -15 16 -41 -7z"/>
<path d="M17100 4603 c-198 -65 -331 -211 -398 -438 -16 -54 -33 -100 -38
-101 -184 -39 -352 -177 -446 -365 -77 -153 -92 -223 -91 -424 0 -143 3 -183
22 -250 22 -83 93 -233 139 -295 57 -77 180 -176 262 -211 91 -39 120 -40 752
-37 562 3 616 4 643 20 17 10 35 18 42 18 44 0 184 107 252 192 85 106 135
218 176 395 26 106 16 327 -18 438 -60 194 -109 280 -223 390 -100 97 -224
153 -356 162 l-78 6 -10 39 c-18 65 -75 192 -109 241 -41 61 -120 134 -179
170 -105 61 -244 82 -342 50z m-535 -738 c25 -24 25 -26 25 -205 0 -99 3 -180
8 -180 4 0 23 11 42 24 80 53 177 59 266 14 49 -24 148 -123 159 -159 6 -19
10 -15 36 29 29 52 87 105 149 138 49 26 171 26 220 0 202 -108 277 -367 174
-597 -33 -73 -131 -169 -191 -187 -135 -40 -263 11 -348 139 l-33 51 -16 -29
c-27 -54 -94 -119 -150 -146 -71 -35 -164 -37 -231 -6 -108 51 -179 152 -210
297 -22 106 -22 749 0 792 28 54 63 63 100 25z m1150 -329 c10 -7 48 -64 84
-126 37 -63 71 -115 76 -117 6 -2 34 39 63 90 28 52 67 111 85 132 28 32 37
37 60 31 28 -7 57 -50 57 -87 0 -19 -100 -202 -157 -287 l-22 -34 48 -76 c79
-127 131 -227 131 -254 0 -38 -36 -78 -70 -78 -32 0 -69 45 -133 160 -64 115
-53 116 -132 -17 -38 -65 -76 -123 -84 -130 -44 -34 -111 7 -111 66 0 15 24
67 54 116 30 50 70 118 90 152 l36 61 -40 64 c-77 124 -132 223 -137 249 -8
42 30 98 68 99 8 0 23 -6 34 -14z"/>
<path d="M16732 3367 c-65 -20 -142 -145 -142 -228 0 -39 33 -130 60 -169 46
-65 137 -87 208 -51 73 37 111 110 112 212 0 117 -40 192 -124 230 -46 21 -66
22 -114 6z"/>
<path d="M17315 3368 c-87 -31 -140 -117 -139 -228 0 -80 16 -131 57 -177 86
-97 220 -79 279 37 72 140 30 310 -88 361 -51 21 -66 22 -109 7z"/>
<path d="M6640 4470 c0 -5 5 -10 11 -10 5 0 7 5 4 10 -3 6 -8 10 -11 10 -2 0
-4 -4 -4 -10z"/>
<path d="M6642 4430 c0 -14 2 -19 5 -12 2 6 2 18 0 25 -3 6 -5 1 -5 -13z"/>
<path d="M6642 4326 c-1 -44 2 -76 6 -70 5 5 5 41 2 79 l-7 70 -1 -79z"/>
<path d="M11170 4339 c0 -5 5 -7 10 -4 6 3 10 8 10 11 0 2 -4 4 -10 4 -5 0
-10 -5 -10 -11z"/>
<path d="M11166 4245 c4 -8 8 -15 10 -15 2 0 4 7 4 15 0 8 -4 15 -10 15 -5 0
-7 -7 -4 -15z"/>
<path d="M6640 4209 c0 -5 5 -7 10 -4 6 3 10 8 10 11 0 2 -4 4 -10 4 -5 0 -10
-5 -10 -11z"/>
<path d="M11161 4064 c1 -103 5 -142 12 -135 17 17 19 32 16 141 -1 36 0 70 1
75 7 29 -1 65 -15 65 -13 0 -15 -22 -14 -146z"/>
<path d="M6311 3984 c0 -11 3 -14 6 -6 3 7 2 16 -1 19 -3 4 -6 -2 -5 -13z"/>
<path d="M6230 3970 c18 -12 30 -13 30 -2 0 4 -10 9 -22 9 -18 2 -20 0 -8 -7z"/>
<path d="M11168 3889 c0 -8 -2 -41 -3 -74 -9 -231 -7 -259 16 -225 9 15 4 298
-6 308 -3 3 -6 -1 -7 -9z"/>
<path d="M6096 3805 c-3 -9 -6 -24 -5 -33 0 -9 5 -4 10 12 9 32 6 48 -5 21z"/>
<path d="M11172 3528 c-1 -27 2 -37 8 -29 7 12 4 60 -4 69 -2 2 -4 -16 -4 -40z"/>
<path d="M6480 3491 c0 -6 4 -13 10 -16 6 -3 7 1 4 9 -7 18 -14 21 -14 7z"/>
<path d="M11171 3464 c0 -11 3 -14 6 -6 3 7 2 16 -1 19 -3 4 -6 -2 -5 -13z"/>
<path d="M11155 3420 c-3 -5 -1 -10 4 -10 6 0 11 5 11 10 0 6 -2 10 -4 10 -3
0 -8 -4 -11 -10z"/>
<path d="M11130 3267 c-13 -45 -30 -93 -37 -107 -7 -14 -13 -31 -13 -37 0 -7
-4 -13 -9 -13 -4 0 -21 -19 -36 -42 -29 -44 -165 -179 -174 -174 -11 6 -45
-11 -35 -17 15 -9 101 36 133 69 15 16 37 36 49 44 12 8 22 19 22 25 0 6 14
24 30 40 17 16 30 35 30 42 0 7 11 36 24 65 24 52 53 174 44 183 -2 3 -15 -32
-28 -78z"/>
<path d="M6699 3054 c19 -8 41 -19 48 -26 7 -6 13 -8 13 -4 0 10 -63 46 -80
46 -8 -1 0 -7 19 -16z"/>
<path d="M15230 2965 l0 -85 -77 0 c-43 1 -122 9 -176 19 -53 9 -99 15 -102
13 -3 -3 -5 -31 -5 -63 0 -46 3 -59 18 -63 34 -10 149 -26 245 -32 l97 -7 0
-63 c0 -35 2 -64 5 -64 3 0 78 41 168 92 89 50 172 96 184 102 13 6 23 13 23
16 0 3 -22 17 -48 31 -26 14 -110 62 -186 107 -76 45 -141 82 -142 82 -2 0 -4
-38 -4 -85z"/>
<path d="M10780 2860 c0 -5 5 -10 10 -10 6 0 10 5 10 10 0 6 -4 10 -10 10 -5
0 -10 -4 -10 -10z"/>
<path d="M8937 2814 c-8 -8 1 -24 14 -24 5 0 9 7 9 15 0 15 -12 20 -23 9z"/>
<path d="M7975 1692 c3 -8 8 -25 11 -38 3 -13 10 -24 15 -24 5 0 9 -5 9 -10 0
-16 79 -120 90 -120 6 0 10 -7 10 -16 0 -9 5 -12 12 -8 7 4 8 3 4 -5 -18 -29
132 -171 213 -201 49 -17 52 -18 61 -1 13 26 -13 58 -53 66 -49 10 -77 26 -77
47 0 10 -5 18 -11 18 -6 0 -9 6 -7 12 3 7 -1 19 -9 26 -7 7 -13 22 -13 33 0
22 -38 27 -59 7 -11 -10 -13 -10 -7 0 5 8 -1 12 -18 12 -34 0 -52 37 -59 124
-7 79 -18 90 -80 92 -28 0 -36 -3 -32 -14z"/>
<path d="M10770 1323 c-47 -12 -99 -22 -117 -22 -17 -1 -35 -6 -38 -12 -11
-16 -3 -18 45 -8 25 5 74 14 110 19 55 9 104 32 89 43 -2 1 -42 -7 -89 -20z"/>
<path d="M8606 1104 c-2 -6 -22 -13 -44 -16 -22 -2 -38 0 -36 4 2 3 0 9 -5 12
-5 4 -13 1 -16 -5 -4 -6 13 -30 38 -54 25 -23 48 -53 52 -66 15 -55 36 -88 50
-83 14 6 31 41 27 56 -1 4 5 5 13 2 21 -9 19 5 -10 46 -15 21 -26 53 -28 76
-1 30 -6 40 -19 40 -10 0 -20 -6 -22 -12z"/>
<path d="M10275 1080 c3 -5 12 -7 20 -3 21 7 19 13 -6 13 -11 0 -18 -4 -14
-10z"/>
<path d="M10190 1069 c-30 -4 -80 -15 -110 -24 -107 -29 -302 -62 -435 -71
-73 -6 -112 -15 -202 -50 -61 -24 -119 -44 -127 -44 -9 0 -34 -11 -56 -25 -22
-14 -44 -25 -50 -25 -5 0 -10 -4 -10 -10 0 -5 -5 -10 -11 -10 -6 0 -25 -6 -42
-14 -67 -29 -241 -45 -278 -26 -23 13 -24 24 -2 45 16 16 13 17 -43 11 -108
-12 -111 -16 -60 -71 35 -36 42 -53 51 -121 3 -21 10 -57 15 -79 6 -22 19
-104 30 -182 11 -79 25 -154 30 -169 6 -14 8 -29 5 -34 -3 -4 3 -44 12 -89
l16 -81 364 0 c212 0 362 4 359 9 -3 5 1 11 9 14 9 4 12 1 9 -8 -5 -11 33 -14
225 -15 152 0 231 3 231 10 0 5 -9 10 -20 10 -11 0 -20 3 -20 8 0 7 38 35 53
38 4 1 9 2 12 3 3 0 1 10 -5 21 -8 14 -8 26 1 41 l11 21 19 -21 c22 -23 48
-19 29 4 -8 10 -8 15 1 21 7 4 9 3 5 -4 -3 -5 0 -12 6 -15 15 -5 77 24 78 36
0 5 -5 5 -11 1 -8 -4 -8 0 0 15 7 11 17 21 24 21 9 0 9 2 0 8 -16 10 -5 23 40
47 47 25 50 50 5 41 -93 -17 -108 -18 -108 -8 0 8 -8 8 -27 0 -16 -7 -30 -13
-32 -15 -3 -2 6 -14 19 -28 24 -25 22 -55 -5 -55 -8 0 -14 -3 -14 -7 4 -23 -3
-24 -20 -4 -19 22 -19 22 -26 2 -5 -16 -14 -20 -45 -18 -26 1 -40 6 -40 15 0
7 -5 10 -12 6 -7 -4 -8 -3 -4 5 5 7 13 8 19 3 7 -4 28 -6 47 -2 23 3 31 8 23
13 -7 5 -17 6 -22 2 -6 -3 -8 4 -6 15 2 11 -1 20 -6 20 -6 0 -7 6 -2 12 11 19
12 37 2 44 -5 3 -9 1 -9 -5 0 -5 -9 -8 -19 -6 -11 2 -22 -3 -25 -12 -4 -8 -13
-13 -20 -10 -8 3 -17 -1 -20 -9 -4 -10 -13 -13 -26 -9 -11 3 -20 2 -20 -3 0
-6 -9 -8 -20 -5 -11 3 -20 9 -20 13 0 4 -7 11 -16 14 -8 3 -12 2 -9 -4 3 -6
-1 -10 -9 -10 -9 0 -21 -9 -28 -20 -8 -13 -24 -20 -42 -20 -16 0 -34 -7 -40
-16 -7 -9 -34 -20 -62 -26 -53 -10 -61 -12 -84 -20 -19 -7 -132 -28 -148 -28
-20 0 -14 18 8 25 11 3 20 13 20 21 0 8 -4 12 -10 9 -5 -3 -10 1 -10 9 0 9 8
16 18 16 14 0 15 2 2 10 -12 8 -12 10 -1 10 8 0 11 3 8 6 -4 4 -13 2 -20 -4
-8 -7 -18 -8 -22 -4 -5 4 -5 -1 -2 -10 5 -15 4 -16 -13 -5 -26 15 -25 27 0 27
11 0 20 7 20 15 0 8 -5 15 -11 15 -13 0 -39 25 -39 38 0 6 -10 8 -22 4 -17 -4
-20 -2 -15 11 3 9 0 18 -8 21 -8 3 -12 12 -9 19 3 8 -2 17 -10 20 -9 4 -16 13
-16 22 0 8 -4 15 -10 15 -5 0 -9 3 -7 8 1 4 -10 21 -25 37 -16 16 -28 33 -28
37 0 5 -6 8 -14 8 -9 0 -12 8 -8 25 3 20 12 26 42 31 32 5 36 9 32 30 -3 20
-10 24 -37 24 -29 0 -34 4 -40 30 -4 17 -11 28 -16 24 -10 -6 -7 25 4 44 5 6
19 12 33 12 17 0 24 6 24 18 0 12 16 26 44 40 24 12 46 22 50 22 4 0 16 9 28
20 12 11 27 20 34 20 6 0 14 7 18 15 3 8 16 15 30 15 14 0 28 5 32 11 3 6 15
9 25 6 11 -3 25 0 32 7 6 6 39 17 72 23 33 7 105 21 160 32 124 23 183 38 260
62 33 10 84 24 112 30 29 6 55 15 59 20 3 5 4 8 2 8 -2 -1 -28 -5 -58 -10z
m-265 -839 c3 -5 -1 -10 -10 -10 -9 0 -13 5 -10 10 3 6 8 10 10 10 2 0 7 -4
10 -10z m5 -56 c0 -2 -7 -4 -15 -4 -8 0 -15 4 -15 10 0 5 7 7 15 4 8 -4 15 -8
15 -10z m100 -11 c0 -8 -5 -13 -12 -11 -18 6 -21 25 -3 25 8 0 15 -7 15 -14z
m-47 -21 c-25 -4 -38 -29 -23 -48 9 -9 6 -18 -9 -33 -23 -23 -47 -29 -34 -8 4
6 -6 3 -22 -7 -17 -10 -27 -15 -23 -11 13 14 -11 45 -30 38 -14 -5 -15 -3 -5
7 10 11 16 11 32 -4 17 -15 20 -15 34 -1 9 8 20 15 26 15 6 0 11 5 11 10 0 6
-2 10 -4 10 -2 0 -12 3 -22 7 -11 4 -15 3 -11 -4 5 -7 0 -9 -14 -6 -16 4 -17
8 -7 14 7 5 9 9 3 10 -5 1 13 7 40 14 28 6 57 9 65 6 11 -4 9 -7 -7 -9z m-179
-46 c-5 -12 -34 -25 -57 -26 -4 0 -3 9 3 20 6 11 16 17 25 14 8 -4 15 -1 15 6
0 6 4 9 10 5 5 -3 7 -12 4 -19z m196 9 c-7 -9 -15 -13 -19 -10 -3 3 1 10 9 15
21 14 24 12 10 -5z m125 -15 c3 -5 1 -10 -4 -10 -6 0 -11 5 -11 10 0 6 2 10 4
10 3 0 8 -4 11 -10z m-405 -4 c0 -2 3 -13 7 -23 6 -17 6 -17 -14 0 -11 9 -23
14 -28 10 -4 -5 -5 -2 -1 5 7 11 36 18 36 8z m100 -16 c0 -5 -5 -10 -11 -10
-5 0 -7 5 -4 10 3 6 8 10 11 10 2 0 4 -4 4 -10z m-30 -36 c0 -2 -9 -4 -21 -4
-11 0 -18 4 -14 10 5 8 35 3 35 -6z m-160 -14 c0 -5 -4 -10 -10 -10 -5 0 -10
5 -10 10 0 6 5 10 10 10 6 0 10 -4 10 -10z"/>
<path d="M8935 861 c-3 -6 4 -9 15 -8 11 1 20 5 20 9 0 11 -28 10 -35 -1z"/>
<path d="M8880 846 c0 -2 7 -7 16 -10 8 -3 12 -2 9 4 -6 10 -25 14 -25 6z"/>
<path d="M10125 840 c-22 -4 -51 -12 -65 -17 -14 -6 -31 -8 -37 -6 -7 3 -13
-3 -13 -13 0 -14 7 -16 43 -11 66 10 148 37 142 47 -7 11 -11 11 -70 0z"/>
<path d="M9927 790 c-20 -4 -40 -10 -44 -13 -13 -13 62 -6 87 8 27 15 16 17
-43 5z"/>
<path d="M9964 436 c-45 -20 -53 -37 -12 -25 18 5 34 9 34 9 1 0 4 7 8 15 3 8
4 15 3 15 -1 -1 -16 -7 -33 -14z"/>
<path d="M9510 191 c0 -6 5 -13 10 -16 6 -3 10 1 10 9 0 9 -4 16 -10 16 -5 0
-10 -4 -10 -9z"/>
<path d="M10241 110 c-9 -5 -4 -7 13 -7 29 0 32 2 13 10 -8 3 -20 2 -26 -3z"/>
<path d="M10240 50 c0 -5 5 -10 10 -10 6 0 10 5 10 10 0 6 -4 10 -10 10 -5 0
-10 -4 -10 -10z"/>
</g>
</svg>
